<svg width="189" height="189" viewBox="0 0 189 189" fill="none" xmlns="http://www.w3.org/2000/svg">
<g clip-path="url(#clip0_162_142)">
<path d="M74.687 0.16663C141.422 -4.02697 182.549 72.1905 143.614 126.086L188.152 171.351C189.364 173.564 189.187 175.59 188.152 177.814C187.439 179.339 180.023 187.024 178.533 187.898C175.451 189.707 172.142 189.227 169.525 186.949L126.074 143.628C87.2812 171.574 32.115 159.175 9.53825 117.067C-17.9438 65.8192 17.0908 3.78424 74.687 0.16663ZM76.7077 6.22967C19.6975 8.76604 -13.3618 72.2915 18.8084 120.427C41.5973 154.526 92.4998 163.778 124.534 136.929C178.452 91.7387 149.323 9.27129 80.5976 6.0882L76.7077 6.22967ZM139.204 130.886L130.879 139.212L137.759 145.998L145.989 138.136L139.204 130.891V130.886ZM150.389 142.537C149.859 142.628 142.958 149.605 142.71 150.085C142.508 150.474 142.372 150.707 142.71 151.086L175.158 182.553C176.406 181.507 183.216 175.54 182.665 174.322L150.384 142.537H150.389Z" fill="white"/>
<path d="M72.6707 12.2927C127.64 7.65446 165.317 65.4706 137.521 113.53C111.621 158.316 45.416 157.432 20.475 112.191C-2.67263 70.2199 24.6428 16.3499 72.6707 12.2927ZM74.6915 18.3557C27.1889 21.9683 1.8993 76.5255 29.9219 115.374C57.9446 154.223 116.88 147.044 135.501 103.935C153.829 61.4993 120.623 14.8644 74.6864 18.3557H74.6915Z" fill="white"/>
<path d="M102.073 65.6981H109.651V53.8246C109.651 51.5762 114.758 50.5506 115.617 53.4154C116.026 54.7846 115.915 68.7549 115.491 70.2908C114.693 73.196 105.165 70.9628 102.548 71.9834L102.073 77.3189H123.543C125.756 77.3189 125.756 83.3819 123.543 83.3819H102.073V88.4345H112.935C113.829 88.4345 115.491 89.642 115.703 90.7182C116.057 92.522 116.052 105.037 115.703 106.866C115.45 108.2 113.748 109.301 112.45 109.165C111.742 109.094 109.651 107.104 109.651 106.876V95.0027L102.124 95.0533C99.4613 116.703 69.6705 122.463 59.3798 103.097C57.9249 100.358 57.5511 97.7513 56.3588 95.0027H49.0336V106.876C49.0336 109.013 43.6888 110.716 43.0017 106.341C42.5723 103.607 42.6178 94.0327 43.0169 91.2437C43.1987 89.9704 44.583 88.4345 45.7499 88.4345H56.6114V83.3819H35.6462C32.701 83.3819 33.2163 77.3189 35.141 77.3189H56.6114V71.7611H44.7396C44.4061 71.7611 43.1078 70.1342 42.9815 69.4774C42.638 67.6736 42.6835 55.6536 43.0775 53.9358C43.9565 50.1363 49.0336 51.7329 49.0336 53.8297V65.7031H56.6114C58.718 36.7117 100.325 36.8229 102.078 65.7031L102.073 65.6981ZM96.0108 66.7086C94.9702 44.6543 63.9922 44.4522 62.6686 66.7086H96.0108ZM76.3086 73.2769H62.6686V94.2449C62.6686 94.6794 64.2549 99.1862 64.5984 99.8936C66.4929 103.769 71.8327 108.261 76.3086 108.139V73.2769ZM96.0108 73.2769H82.3708V108.645C86.8872 107.417 91.156 105.012 93.5859 100.914C94.1821 99.9087 96.0108 95.6343 96.0108 94.7501V73.2769Z" fill="white"/>
</g>
<defs>
<clipPath id="clip0_162_142">
<rect width="189" height="189" fill="white"/>
</clipPath>
</defs>
</svg>
