<svg width="63" height="61" viewBox="0 0 63 61" fill="none" xmlns="http://www.w3.org/2000/svg">
<g clip-path="url(#clip0_111_798)">
<path d="M48.6356 34.4857L48.9056 34.5993L62.1321 34.5947C62.4922 34.8037 62.9031 34.5697 62.9977 35.1125L62.573 36.7726C61.8182 38.0308 60.3086 39.0982 59.0321 39.8204C58.9651 39.6023 58.6997 39.8204 58.5889 39.8726C54.9279 41.6077 51.8187 42.448 47.7469 42.9203L47.0844 43.1951C46.2973 43.4109 45.1524 43.8946 44.4299 44.283C43.0195 45.0415 42.9272 45.4253 41.9969 46.4609C41.9923 46.4677 41.93 46.3473 41.8377 46.4518C40.9767 47.4397 41.1198 49.8379 41.533 50.9984C41.5676 51.0961 41.81 51.7388 41.9969 51.5775C42.0039 51.5911 42.0662 51.6229 42.1077 51.6865C42.7379 52.6767 43.8366 53.6124 44.8731 54.1892C44.6284 54.2732 45.0369 54.4367 45.09 54.464C46.348 55.1135 47.6315 55.1385 48.7994 55.8198V60.5004C48.6309 60.723 48.407 60.7979 48.137 60.8297C46.4081 61.0273 43.1949 60.916 41.3806 60.8297C41.1706 60.8206 40.9744 60.7775 40.7782 60.7162C40.5104 60.5481 40.2611 60.321 40.0049 60.1711C39.1162 59.6533 37.9251 59.3354 36.9072 59.1923L37.1842 59.0833C35.0305 58.8471 32.8261 58.779 30.654 58.8607C29.6014 58.9016 28.4958 59.0606 27.5055 59.1923C26.3791 59.3422 25.5781 59.3967 24.5117 59.894C24.4055 59.944 24.1516 60.019 24.297 60.1711C24.2185 60.2188 24.1216 60.3778 23.9646 60.3891C23.93 60.3959 23.8907 60.3846 23.8538 60.3891C23.4983 60.4346 23.4937 60.6798 23.2998 60.7684C22.8312 60.9841 17.416 60.8115 16.3865 60.8229C16.1995 60.8229 15.8949 60.7525 15.7794 60.9342C15.7102 60.9251 15.5971 60.9523 15.5578 60.9342C15.514 60.9137 15.4055 60.6685 15.3362 60.6071L15.4586 55.7789C15.694 55.386 17.6699 54.9954 18.2862 54.7502C18.7548 54.5639 19.3065 54.2619 19.7658 54.028C19.872 53.9735 20.1329 53.9121 19.9828 53.7532C20.8761 53.2149 22.1157 52.2134 22.5266 51.2505C22.6327 51.523 22.6928 51.1301 22.7181 51.0574C23.0113 50.2126 23.1752 49.4791 22.9697 48.5843C22.8243 48.4094 22.8636 48.666 22.8589 48.7455C22.365 47.2671 21.0839 46.2383 19.7612 45.4798C20.0059 45.398 19.5973 45.2322 19.5443 45.205C16.6289 43.7152 13.3811 43.0407 10.2903 41.9029C10.1472 41.8507 9.91178 41.6622 9.8056 41.8893C6.99411 40.6788 1.43345 37.4222 0.180054 34.597C0.380874 34.1541 -0.115407 33.7136 0.671718 33.6114L18.8241 33.625L19.6089 33.0754C28.969 33.055 38.3429 33.0845 47.7076 33.0799C47.9084 33.0799 48.0631 32.9641 48.0816 32.9641C48.6748 32.9687 48.6748 34.0633 48.6356 34.488V34.4857ZM20.0936 34.1587V37.3699C20.0936 37.4608 20.3383 37.706 20.0936 37.9172L20.3129 37.9695C20.546 37.2768 20.6892 35.9142 20.9985 35.3237C21.0631 35.2011 21.0931 35.1398 21.2524 35.1375L46.4889 35.0262C46.8051 35.0217 46.7682 34.547 46.8674 34.3245L20.0936 34.1587ZM18.5448 35.1375H2.3937C2.30368 35.4327 2.72378 35.3918 2.9246 35.4305C4.36728 35.7075 5.85843 35.6644 7.31496 35.7916C10.5535 36.0754 13.7943 36.382 17.0305 36.6818C17.1436 36.7136 17.206 36.7953 17.2729 36.8794C17.6653 37.379 18.0369 41.342 18.2701 41.342L18.5471 35.1375H18.5448ZM34.2272 37.0156C33.9433 36.7749 32.9854 36.8317 32.8423 37.2859L30.1831 46.3269C30.1462 47.0195 31.582 46.9514 31.7689 46.3519L34.3473 37.6697C34.3888 37.4948 34.3634 37.1315 34.2296 37.0179L34.2272 37.0156ZM27.4686 43.4495C27.2562 43.2451 26.1459 42.4116 26.1875 42.1754L28.7774 39.7091C29.0428 39.2231 28.5581 38.6281 28.0757 38.569C27.7179 38.5259 27.03 39.1799 26.7322 39.4388C26.3745 39.7477 24.2347 41.828 24.1908 42.0551C24.1493 42.2617 24.1585 42.5343 24.2924 42.7137L27.6994 45.8999C28.2003 46.0771 28.385 45.3549 28.6158 45.2163C28.7081 45.1596 28.9597 45.4276 28.8351 44.8848C28.7705 44.6032 27.7687 43.7356 27.4709 43.4495H27.4686ZM38.1906 39.7545C37.8259 39.4366 37.0087 38.5668 36.6048 38.5281C36.4155 38.51 35.5938 39.0528 35.5753 39.13C35.5245 39.3639 35.6745 39.5819 35.8038 39.7636C36.1131 40.1974 38.1906 41.9574 38.2298 42.1732C38.2575 42.2708 38.179 42.314 38.1329 42.3798C37.6689 43.0611 35.9446 44.2194 35.6399 44.828C35.5799 44.9484 35.5291 45.121 35.603 45.2436C35.9954 45.3435 35.9769 45.741 36.3763 45.8454C36.9603 45.9976 37.5581 45.1005 37.902 44.7712C38.546 44.1512 39.4301 43.429 40.0049 42.8136C40.2403 42.5615 40.3811 42.3049 40.335 41.9529C40.2773 41.51 38.6315 40.1429 38.1883 39.7568L38.1906 39.7545ZM16.7743 56.6896C16.802 57.2483 17.3675 56.9054 17.7092 56.9008C18.8333 56.8849 20.3037 57.0348 21.3678 56.9076C21.6748 56.8713 21.8964 56.7555 22.1388 56.5783C22.7943 56.0946 24.1262 53.9121 24.3824 53.1264C24.6386 52.3406 24.8279 51.3777 24.6271 50.5919L23.7246 52.4768C22.0834 54.7524 19.475 56.0106 16.7743 56.6873V56.6896ZM39.7856 55.9288C35.3906 54.137 30.8941 53.7554 26.3421 55.2702C25.9105 55.4133 25.2988 55.6222 24.9641 55.9265C28.9574 54.598 33.357 54.598 37.4658 55.436C38.1329 55.5723 38.7953 55.8312 39.4509 55.9879C39.5617 56.0151 39.8133 56.1309 39.7879 55.9288H39.7856Z" fill="#E0E0E0"/>
<path d="M48.0839 32.9618C48.0631 32.9618 47.9107 33.0776 47.7099 33.0776C38.3452 33.0845 28.969 33.0549 19.6112 33.0731L18.8264 33.6227L0.674005 33.6091C-0.11312 33.7113 0.383161 34.1496 0.18234 34.5947C-0.110812 33.9338 -0.0300222 34.0633 0.293138 33.5069C0.526274 33.4251 0.759411 33.4024 1.0064 33.3933C6.82327 33.1798 12.7763 33.5591 18.6071 33.4047L19.4796 32.9573L48.0839 32.9618Z" fill="#090909"/>
<path d="M40.7828 60.7162C40.979 60.7775 41.1775 60.8184 41.3852 60.8297C43.1995 60.9137 46.4127 61.0273 48.1416 60.8297C48.4117 60.7979 48.6356 60.723 48.8041 60.5004V55.8198C47.6361 55.1385 46.3527 55.1135 45.0947 54.464C45.0393 54.4345 44.6307 54.271 44.8777 54.1892C45.3186 54.4345 45.8864 54.6888 46.3665 54.8455C46.9136 55.0249 48.7094 55.268 48.9126 55.7153V60.6117C48.7117 60.8842 48.4601 60.916 48.1462 60.9433C45.9279 61.1408 43.4142 60.7798 41.1636 60.9433C40.9097 61.0091 40.8474 60.7593 40.7828 60.7207V60.7162Z" fill="#040404"/>
<path d="M59.0343 39.818C58.7435 39.9838 56.9546 40.7764 56.9315 40.9058C55.5027 41.3986 54.1062 41.9573 52.6173 42.2684C50.8076 42.6454 48.8663 42.7068 47.0844 43.1928L47.7468 42.918C51.8186 42.4456 54.9279 41.6053 58.5888 39.8702C58.7019 39.818 58.9674 39.5977 59.032 39.818H59.0343Z" fill="#0B0B0B"/>
<path d="M15.3362 60.6071L15.2831 55.7108C15.4886 55.2588 17.6053 54.8614 18.2124 54.6207C18.6832 54.4344 19.5512 54.0098 19.9828 53.7509C20.1328 53.9098 19.872 53.9711 19.7658 54.0257C19.3088 54.2618 18.7548 54.5616 18.2862 54.7478C17.6699 54.9954 15.694 55.3837 15.4586 55.7766L15.3362 60.6048V60.6071Z" fill="#0C0C0C"/>
<path d="M19.7612 45.4775C18.9718 45.0233 17.9654 44.6031 17.1067 44.2806C14.8677 43.4358 12.4578 43.0202 10.2488 42.1027C10.1357 42.055 9.97411 41.9574 9.8056 41.8847C9.90948 41.6576 10.1472 41.8461 10.2903 41.8983C13.3811 43.0361 16.6289 43.7106 19.5443 45.2004C19.5997 45.2277 20.0082 45.3935 19.7612 45.4752V45.4775Z" fill="#0C0C0C"/>
<path d="M41.9992 46.4585V46.5675C41.1013 47.7939 41.2606 50.3034 41.9992 51.5752C41.8122 51.7364 41.5699 51.096 41.5352 50.9961C41.1221 49.8356 40.9789 47.4373 41.8399 46.4494C41.93 46.345 41.9923 46.4653 41.9992 46.4585Z" fill="#1D1D1D"/>
<path d="M22.8589 48.7432C22.8613 48.6638 22.8243 48.4071 22.9697 48.582C23.1752 49.4768 23.0113 50.2103 22.7181 51.0552C22.6927 51.1278 22.635 51.5207 22.5266 51.2482C22.889 50.4011 22.8243 49.6244 22.8589 48.7455V48.7432Z" fill="#0C0C0C"/>
<path d="M20.0936 34.1587L46.8674 34.3245C46.7682 34.5493 46.8074 35.0217 46.4889 35.0262L21.2524 35.1375C21.0931 35.1375 21.0631 35.2011 20.9985 35.3237C20.6892 35.9142 20.5461 37.2768 20.3129 37.9695L20.0936 37.9173C20.3383 37.706 20.0936 37.4608 20.0936 37.3699V34.1587Z" fill="#121212"/>
<path d="M18.5448 35.1375L18.2678 41.3419C18.0346 41.3419 17.6653 37.379 17.2706 36.8793C17.2037 36.793 17.1413 36.7113 17.0282 36.6818C13.792 36.382 10.5512 36.0754 7.31265 35.7915C5.85613 35.6643 4.36267 35.7098 2.9223 35.4304C2.72148 35.3918 2.30368 35.4327 2.39139 35.1375H18.5425H18.5448Z" fill="#121212"/>
<path d="M34.2272 37.0156C34.3611 37.1292 34.3865 37.4925 34.3449 37.6674L31.7666 46.3496C31.5796 46.9491 30.1462 47.0173 30.1808 46.3246L32.8399 37.2836C32.9854 36.8294 33.941 36.7726 34.2249 37.0134L34.2272 37.0156Z" fill="#121212"/>
<path d="M38.1906 39.7545C38.6337 40.1405 40.2796 41.5077 40.3373 41.9506C40.3834 42.3003 40.2426 42.5592 40.0072 42.8113C39.4301 43.4267 38.546 44.1489 37.9043 44.7689C37.5604 45.0982 36.9625 45.9975 36.3786 45.8431C35.9792 45.7386 35.9954 45.3435 35.6053 45.2413C35.5314 45.1209 35.5822 44.9461 35.6422 44.8257C35.9469 44.2171 37.6712 43.0588 38.1352 42.3775C38.179 42.3117 38.2598 42.2708 38.2321 42.1708C38.1929 41.9551 36.1154 40.195 35.8061 39.7613C35.6768 39.5796 35.5268 39.3616 35.5776 39.1277C35.5937 39.0504 36.4155 38.5077 36.6071 38.5258C37.0133 38.5644 37.8282 39.4342 38.1929 39.7522L38.1906 39.7545Z" fill="#121212"/>
<path d="M27.4686 43.4494C27.764 43.7333 28.7658 44.6031 28.8328 44.8847C28.9574 45.4275 28.7058 45.1595 28.6135 45.2163C28.3827 45.3571 28.198 46.077 27.6971 45.8998L24.2901 42.7136C24.1585 42.5364 24.147 42.2639 24.1885 42.055C24.2324 41.8279 26.3721 39.7476 26.7299 39.4387C27.0277 39.1798 27.7179 38.5258 28.0733 38.5689C28.5558 38.628 29.0405 39.223 28.7751 39.709L26.1852 42.1753C26.1436 42.4115 27.2539 43.2473 27.4663 43.4494H27.4686Z" fill="#121212"/>
<path d="M16.7743 56.6896C19.475 56.0128 22.081 54.7547 23.7245 52.4791L24.6271 50.5941C24.8279 51.3776 24.634 52.3587 24.3824 53.1286C24.1308 53.8985 22.7943 56.0968 22.1387 56.5806C21.8964 56.7577 21.6748 56.8735 21.3678 56.9099C20.3037 57.0348 18.8333 56.8872 17.7091 56.9031C17.3675 56.9076 16.802 57.2483 16.7743 56.6918V56.6896Z" fill="#121212"/>
<path d="M39.7856 55.9288C39.811 56.1309 39.5594 56.0151 39.4486 55.9879C38.793 55.8312 38.1329 55.5723 37.4635 55.436C33.3547 54.598 28.9551 54.5957 24.9618 55.9265C25.2965 55.6245 25.9105 55.4133 26.3398 55.2702C30.8918 53.7532 35.3883 54.137 39.7833 55.9288H39.7856Z" fill="#121212"/>
<path d="M27.5055 59.1923C28.4958 59.0606 29.6015 58.9016 30.654 58.8607C32.8261 58.779 35.0305 58.8448 37.1842 59.0833L36.9072 59.1923C34.3104 58.8244 30.2224 58.9493 27.614 59.3013L27.5032 59.1923H27.5055Z" fill="#0C0C0C"/>
<path d="M62.4645 34.4857L62.1321 34.5947L48.9079 34.5993L48.6356 34.4857H62.4645Z" fill="#030303"/>
<path d="M27.5055 59.1923L27.6163 59.3013C26.5291 59.4489 25.2526 59.6056 24.297 60.1711C24.1492 60.0189 24.4055 59.9417 24.5116 59.894C25.5781 59.3967 26.379 59.3421 27.5055 59.1923Z" fill="#0F0F0F"/>
<path d="M48.0169 0.272512C48.2408 0.440569 48.3216 0.654046 48.4047 0.901589C48.9887 2.61168 51.4609 9.84493 52.8043 13.7738C53.1667 14.932 53.5383 15.6838 53.7599 16.758C53.873 17.7027 54.3485 19.1834 54.7109 20.244C54.9556 21.3568 55.3849 22.565 54.9441 23.7278C54.7017 24.2637 54.0623 24.5476 53.5175 24.752C51.7771 25.3947 49.9905 26.2055 48.16 26.7255C45.7409 27.3432 45.1685 26.2872 44.5937 24.4272C44.1159 23.0851 43.7581 21.8837 43.2665 20.5483C42.7286 19.1766 42.4078 16.8874 40.4573 17.0327C39.9818 17.0555 39.4763 17.2212 39.0146 17.3848C36.2793 18.3704 33.514 19.2947 30.7879 20.2667C28.7681 20.8435 26.8569 21.652 24.8602 22.2993C23.7153 22.6717 22.6142 23.1986 21.4578 23.621C19.7012 24.3114 17.843 24.8497 16.061 25.4379C14.5145 25.967 12.841 27.1093 11.1282 27.0071C9.05999 26.7641 7.87815 23.8754 8.55909 22.0903C8.9515 21.1706 9.981 20.8095 10.8651 20.4688C11.9707 20.0487 12.9841 19.5559 14.1128 19.2606C17.6953 18.3204 21.2039 16.9964 24.7933 16.0903C27.2331 15.2114 29.8045 14.3166 32.2952 13.7034C33.9387 13.3582 35.3767 12.5883 36.9787 12.0819C37.4819 11.932 38.0243 11.7935 38.4329 11.4687C39.8779 10.3287 38.9084 8.32787 38.359 6.90393C37.318 4.38081 37.071 2.85468 40.0764 1.97579C41.0897 1.63968 42.0107 1.18547 42.9941 0.835729C43.922 0.513242 44.91 0.331559 45.8425 0.129437C46.5119 -0.0136383 47.4375 -0.10448 47.9938 0.258886L48.0169 0.274783V0.272512Z" fill="#E0E0E0"/>
</g>
<defs>
<clipPath id="clip0_111_798">
<rect width="63" height="61" fill="white"/>
</clipPath>
</defs>
</svg>
