<svg width="942" height="785" viewBox="0 0 942 785" fill="none" xmlns="http://www.w3.org/2000/svg">
<g clip-path="url(#clip0_96_395)">
<path d="M229.512 418.239C229.754 418.842 231.466 419.953 232.118 421.619C241.742 446.343 251.028 471.237 260.58 495.985C241.308 495.72 222.276 491.687 203.028 492.798C193.234 503.108 184.02 514.142 174.323 524.549C172.876 526.094 165.495 534.207 163.927 532.275L139.758 471.816C140.216 470.15 138.914 467.204 140.12 465.297C140.675 464.428 155.919 453.876 156.932 453.538C164.53 450.979 174.661 460.444 180.064 459.406C183.345 458.778 192.559 444.967 193.476 440.983L219.165 439.897C223.748 437.144 223.41 421.257 229.488 418.263L229.512 418.239Z" fill="#D23333"/>
<path d="M250.232 233.385V236.838L253.681 235.123C255.659 235.968 261.931 236.572 262.317 236.862C263.378 237.659 257.058 257.964 260.484 263.276C262.655 266.632 274.787 272.21 275.897 276.049C277.851 282.785 267.648 294.085 267.527 298.142C267.334 304.033 281.059 313.715 279.346 320.283C278.357 324.122 266.683 330.93 265.742 338.029C265.018 343.293 272.592 358.745 270.832 361.087C270.59 361.425 266.779 362.077 265.163 363.164C262.003 365.313 251.221 372.218 250.546 374.488L250.16 397.426C244.684 398.585 231.201 399.864 227.076 402.52C224.905 403.921 226.545 406.842 226.063 407.856C225.725 408.581 224.133 409.522 223.458 411.236C222.469 413.723 219.647 424.42 218.923 424.902C215.04 427.631 201.821 421.957 196.177 423.695C191.111 425.241 184.599 441.466 181.801 442.263C177.266 443.542 164.168 434.874 158.259 435.792C153.048 436.589 143.979 448.396 140.385 449.216C137.756 449.82 125.599 436.854 121.233 435.816C115.347 434.416 104.034 444.291 97.7629 442.263C93.0111 440.717 88.5004 424.733 81.0953 423.43C79.6239 419.011 83.3626 416.355 86.9567 416.404C88.4039 416.404 91.9256 426.496 94.8925 426.882L98.3659 419.977C127.552 427.076 155.195 428.041 183.779 416.524C233.516 396.484 262.799 342.834 255.322 289.594C254.791 285.852 252.065 284.089 251.945 283.51C249.074 271.534 246.397 258.375 239.86 247.244C247.796 247.799 240.873 242.101 240.318 239.204C239.884 236.934 241.959 233.385 241.573 229.98C245.191 229.787 247.603 232.323 250.208 233.433L250.232 233.385Z" fill="#A5A3A2"/>
<path d="M53.4768 414.786C53.3321 418.601 51.8125 422.488 52.1019 425.627C52.705 432.001 58.9523 441.659 60.279 448.589L85.9438 449.675C89.9238 455.736 94.2414 467.639 102.226 466.311C107.146 465.49 122.439 457.015 125.768 461.651C126.66 462.907 125.912 487.1 125.937 491.687C125.961 494.585 124.803 499.438 127.673 501.176C123.018 512.162 117.735 523.052 113.008 533.989L74.7275 491.108C68.9867 489.345 63.4388 492.412 57.8669 492.605C48.7732 492.895 39.173 491.905 30.1759 492.508C19.9485 493.209 17.2711 498.134 23.3255 482.198L53.5009 414.786H53.4768Z" fill="#D23333"/>
<path d="M191.546 183.284C193.982 188.62 182.79 185.336 186.384 190.165C186.504 190.31 188.265 189.827 189.785 191.421C190.87 192.556 191.618 194.367 193.355 196.153C194.32 197.143 199.096 196.95 196.563 200.451C196.249 200.886 194.875 200.258 194.44 200.572C189.303 204.29 198.179 204.145 200.905 205.908C204.065 207.936 203.124 210.302 203.63 210.93C188.024 204.025 171.742 195.091 154.448 193.666C132.329 191.831 109.534 193.715 89.7308 204.025C89.5137 203.687 87.777 203.493 87.1498 202.262C85.4131 198.882 88.2594 194.149 82.8321 195.381C83.3387 208.105 70.458 218.005 58.6628 219.598C58.1563 221.119 61.1473 222.665 62.1121 223.027C41.1027 240.459 26.1235 269.168 24.1456 296.451C23.6632 303.067 23.832 311.373 24.1456 318.037C16.2098 317.892 13.8459 308.79 6.89902 307.679C8.15331 305.53 11.8197 300.194 11.7232 298.504L3.3291 277.474C3.73916 273.296 16.9816 267.188 18.646 261.562C20.8651 254.077 17.5605 244.516 17.3193 236.91L39.4142 229.642L43.9249 205.667C45.8545 202.6 61.3644 205.135 67.2258 201.345C71.6641 198.471 74.8722 184.033 77.9597 181.835C80.7095 179.88 96.8706 186.399 102.322 184.757C106.23 183.574 112.501 173.699 116.433 171.091C123.428 166.431 132.642 179.035 140.699 179.783L159.682 169.425C164.434 169.401 172.466 183.284 177.266 184.709C181.729 186.037 186.987 183.912 191.594 183.284H191.546Z" fill="#BCBCBC"/>
<path d="M229.512 418.238C223.433 421.232 223.771 437.12 219.188 439.872L193.499 440.959C192.558 444.943 183.344 458.778 180.088 459.381C174.685 460.396 164.554 450.955 156.956 453.514C155.942 453.852 140.674 464.404 140.143 465.273C138.937 467.18 140.24 470.126 139.781 471.792C137.08 481.595 131.725 491.663 127.697 501.152C124.826 499.414 125.984 494.561 125.96 491.663C125.912 487.1 126.684 462.882 125.791 461.627C122.462 456.967 107.17 465.466 102.249 466.287C94.2649 467.615 89.9473 455.711 85.9673 449.651L60.3025 448.565C58.9758 441.635 52.7526 431.977 52.1254 425.603C51.836 422.488 53.3556 418.577 53.5003 414.762C53.5003 414.182 53.4762 413.603 53.5003 413.023L55.237 411.285C55.7918 411.405 56.4431 411.116 56.9738 411.285C57.3838 423.84 59.2894 426.255 71.8082 425.192C74.1238 424.999 75.74 423.406 75.957 423.381C77.4284 423.261 79.7923 423.14 81.1431 423.381C88.5724 424.685 93.0589 440.669 97.8107 442.214C104.106 444.267 115.395 434.391 121.281 435.768C125.622 436.806 137.803 449.772 140.433 449.168C144.027 448.347 153.096 436.564 158.306 435.744C164.216 434.826 177.314 443.494 181.849 442.214C184.671 441.418 191.159 425.192 196.225 423.647C201.869 421.909 215.087 427.583 218.971 424.854C219.67 424.347 222.517 413.651 223.506 411.188C224.181 409.474 225.773 408.532 226.111 407.808C228.933 410.681 228.499 415.534 229.56 418.166L229.512 418.238Z" fill="#B21F24"/>
<path d="M24.1455 318.037C25.2068 340.323 33.4562 360.653 46.5781 378.496C57.4567 393.297 69.6378 402.544 84.5446 411.309C88.0663 413.385 95.1338 419.156 98.3419 419.953L94.8684 426.858C91.9016 426.472 88.404 416.403 86.9326 416.379C83.3144 416.331 79.5998 418.987 81.0712 423.405C79.7445 423.164 77.3565 423.285 75.8851 423.405C76.8982 417.659 72.9906 420.725 70.072 420.073C67.9252 419.591 69.2036 416.259 68.9865 414.762L63.8246 419.929C62.8839 414.134 62.0879 412.927 56.9019 411.309C56.3953 411.14 55.7199 411.43 55.1652 411.309H53.4284C53.332 408.508 53.8626 405.659 53.2113 402.882L29.3315 397.426L28.4149 373.281L8.75623 360.943C6.89891 358.287 14.4729 343.437 13.7493 338.005C12.7844 330.81 0.0485233 323.325 -0.072082 318.93C-0.192687 314.898 4.82449 311.035 6.82654 307.655C13.7975 308.765 16.1373 317.868 24.0731 318.013L24.1455 318.037Z" fill="#B7B8B8"/>
<path d="M191.546 183.284C193.934 182.97 200.832 180.99 201.749 181.666C202.617 182.27 206.404 194.608 207.08 197.119C207.586 198.978 206.235 201.127 208.768 203.155C213.713 207.067 217.09 204.073 219.164 204.049C223 203.976 233.951 202.986 235.639 205.691C235.374 213.272 240.897 223.679 241.597 229.956C241.983 233.385 239.908 236.91 240.343 239.18C240.897 242.077 247.82 247.799 239.884 247.22C237.159 242.584 228.572 234.447 224.35 229.956C218.344 223.558 207.779 216.266 203.63 210.954C203.124 210.302 204.065 207.96 200.905 205.932C198.179 204.169 189.302 204.339 194.44 200.596C194.874 200.282 196.249 200.91 196.563 200.475C199.096 196.974 194.32 197.167 193.355 196.178C191.618 194.391 190.87 192.604 189.785 191.445C188.265 189.852 186.48 190.334 186.384 190.19C182.766 185.361 193.982 188.644 191.546 183.308V183.284Z" fill="#B7B8B8"/>
<path d="M207.08 197.119L209.396 197.071C211.687 202.407 214.919 201.465 219.165 204.049C217.114 204.097 213.713 207.091 208.769 203.155C206.236 201.151 207.562 198.978 207.08 197.119Z" fill="#BCBCBC"/>
<path d="M253.682 235.123L250.232 236.838V233.385C251.631 233.989 252.813 234.737 253.682 235.123Z" fill="#B7B8B8"/>
<path d="M53.4766 413.047C53.5007 412.468 53.4766 411.888 53.4766 411.309H55.2133L53.4766 413.047Z" fill="#A5A3A2"/>
<path d="M94.9164 231.671C99.0894 229.232 120.388 222.061 125.285 221.481C142.869 219.429 163.058 221.723 178.93 229.618C183.971 232.129 203.027 247.172 204.571 247.292C209.13 247.703 224.736 236.596 224.35 229.932C228.571 234.423 237.158 242.56 239.884 247.196C246.421 258.327 249.098 271.51 251.969 283.461C248.23 284.5 248.761 287.977 248.206 290.922C244.901 308.693 246.348 320.79 232.768 334.214C229.777 337.184 228.668 337.643 224.35 337.015C230.597 314.777 229.078 289.812 218.778 269.168C213.833 259.268 211.566 268.878 205.367 269.626C204.257 269.771 203.051 269.53 201.917 269.626C201.363 262.262 187.107 250.455 181.053 246.447C152.807 227.711 116.312 230.657 90.6229 252.387C56.6846 281.071 55.6956 335.494 89.7304 364.637C87.7043 366.158 82.3011 372.749 83.0006 375.526C83.5554 377.723 93.5657 385.401 96.026 386.826C111.994 396.073 133.679 399.285 151.842 397.45C153.699 405.973 143.231 403.631 137.973 405.176C124.224 409.16 116.384 411.212 100.898 409.57C95.1335 408.967 85.3163 401.723 84.5203 411.285C69.6135 402.52 57.4323 393.248 46.5537 378.472C48.7246 375.261 67.129 364.806 67.3702 363.55C68.5039 358.093 62.2324 353.264 60.0374 348.556C46.023 318.665 48.797 281.361 68.9622 254.946C71.5431 251.566 80.3714 245.168 81.0468 242.005C87.6319 246.52 85.654 241.401 88.8862 236.886C90.5264 234.592 92.4561 233.023 94.8682 231.622L94.9164 231.671Z" fill="#C3C3C2"/>
<path d="M98.3656 419.953C95.1334 419.156 88.09 413.385 84.5684 411.309C85.3644 401.748 95.1816 408.991 100.947 409.595C116.432 411.236 124.272 409.184 138.021 405.2C143.279 403.679 153.723 405.997 151.89 397.474C181.318 394.528 216.221 366.013 224.374 337.015C228.692 337.643 229.801 337.16 232.792 334.214C246.372 320.79 244.901 308.717 248.23 290.922C248.785 287.977 248.278 284.5 251.993 283.461C252.137 284.017 254.863 285.804 255.37 289.546C262.823 342.81 233.564 396.436 183.827 416.476C155.243 427.993 127.576 427.051 98.4138 419.929L98.3656 419.953Z" fill="#BCBCBC"/>
<path d="M81.0957 242.029C80.4203 245.192 71.592 251.59 69.011 254.97C48.8458 281.385 46.0719 318.689 60.0862 348.58C62.2812 353.264 68.5527 358.118 67.419 363.574C67.1537 364.83 48.7734 375.309 46.6025 378.496C33.4807 360.653 25.2313 340.323 24.1699 318.037C23.8564 311.373 23.6875 303.043 24.1699 296.451C26.1479 269.168 41.1271 240.459 62.1365 223.027C63.6079 223.63 65.5858 223.123 68.2391 224.62C73.9558 227.856 82.6635 234.93 81.1198 242.029H81.0957Z" fill="#D8D8D8"/>
<path d="M203.63 210.93C207.755 216.242 218.32 223.534 224.35 229.932C224.736 236.62 209.154 247.703 204.571 247.292C203.027 247.147 183.971 232.129 178.93 229.618C163.059 221.723 142.893 219.429 125.285 221.481C120.364 222.061 99.0653 229.232 94.9165 231.671C95.0612 225.2 103.359 224.693 106.832 222.013C112.959 217.28 105.988 218.343 103.069 217.473C95.6642 215.204 93.3727 209.819 89.7305 204.049C109.51 193.739 132.304 191.88 154.447 193.691C171.766 195.115 188.024 204.049 203.63 210.954V210.93Z" fill="#D8D8D8"/>
<path d="M62.1117 223.027C61.171 222.64 58.1559 221.119 58.6624 219.598C70.4335 218.005 83.3141 208.129 82.8317 195.381C88.2589 194.149 85.4127 198.882 87.1494 202.262C87.7765 203.469 89.5132 203.687 89.7303 204.025C93.3967 209.819 95.6882 215.204 103.069 217.449C105.988 218.343 112.959 217.28 106.832 221.988C103.359 224.669 95.037 225.176 94.9164 231.646C92.5284 233.047 90.5746 234.616 88.9343 236.91C85.7021 241.425 87.7042 246.52 81.095 242.029C82.6387 234.93 73.931 227.856 68.2143 224.62C65.561 223.123 63.5831 223.606 62.1117 223.027Z" fill="white"/>
<path d="M56.9502 411.333C62.1362 412.951 62.9322 414.158 63.8729 419.953L69.0348 414.786C69.2519 416.283 67.9735 419.615 70.1203 420.098C73.0389 420.75 76.9466 417.683 75.9335 423.43C75.7164 423.43 74.1003 425.023 71.7846 425.24C59.2658 426.327 57.3603 423.913 56.9502 411.333Z" fill="#A5A3A2"/>
<path d="M201.917 269.675C202.472 276.991 188.603 286.938 182.669 291.091C181.415 291.961 178.858 291.695 178.062 292.54C177 293.675 178.134 296.476 177.748 297.297C177.073 298.794 172.852 295.606 172.586 295.558C172.586 283.631 175.191 277.425 164.819 269.651C146.777 256.154 106.326 259.824 107.025 288.653L129.385 288.604C126.491 279.767 139.661 275.083 144.751 278.536C148.369 280.975 146.56 291.14 143.303 294.737C130.616 308.765 113.393 310.431 107.483 333.176C105.964 339.019 106.109 342.375 107.025 347.397C107.532 350.174 108.907 350.85 107.194 353.458C103.455 359.132 96.7737 361.039 91.4912 364.685C91.1053 364.951 90.1404 364.419 89.7545 364.685C55.7197 335.542 56.7328 281.119 90.647 252.435C116.336 230.705 152.831 227.759 181.077 246.496C187.107 250.504 201.363 262.311 201.942 269.675H201.917Z" fill="#E5E5E4"/>
<path d="M205.367 269.675C206.621 278.898 212.7 285.2 213.809 294.906C215.667 310.963 214.654 328.709 207.128 343.148C186.721 382.238 138.841 396.073 100.609 373.691C97.9317 372.122 91.1295 368.476 91.4672 364.709C96.7256 361.063 103.407 359.156 107.17 353.482C108.883 350.874 107.508 350.198 107.001 347.421H172.586L174.323 321.514C171.453 321.538 168.558 321.441 165.688 321.514C165.736 315.26 158.331 318.134 157.052 311.156C159.995 309.248 171.501 295.437 172.586 295.606C172.852 295.655 177.073 298.818 177.748 297.345C178.134 296.524 177.025 293.723 178.062 292.588C178.858 291.719 181.415 292.009 182.669 291.14C188.579 287.011 202.472 277.039 201.918 269.723C203.051 269.626 204.257 269.868 205.367 269.723V269.675Z" fill="#D8D8D8"/>
<path d="M224.35 337.039C216.197 366.037 181.294 394.552 151.866 397.498C133.679 399.309 112.018 396.122 96.0503 386.874C93.59 385.45 83.5797 377.772 83.0249 375.574C82.3013 372.798 87.7285 366.206 89.7547 364.685C90.1165 364.419 91.0814 364.951 91.4914 364.685C91.1779 368.476 97.98 372.097 100.633 373.667C138.889 396.073 186.746 382.238 207.152 343.124C214.678 328.709 215.691 310.938 213.833 294.882C212.7 285.176 206.621 278.874 205.391 269.651C211.59 268.902 213.858 259.292 218.802 269.192C229.102 289.836 230.622 314.802 224.374 337.039H224.35Z" fill="#B7B8B8"/>
<path d="M172.562 295.582C171.477 295.413 159.971 309.224 157.029 311.132C148.49 314.898 133.896 318.375 131.147 328.395H155.316C156.064 328.395 151.191 321.852 165.664 321.49C168.534 321.417 171.429 321.514 174.299 321.49L172.562 347.421H106.977C106.061 342.399 105.916 339.043 107.436 333.2C113.345 310.456 130.568 308.79 143.255 294.761C146.512 291.164 148.321 280.999 144.703 278.56C139.613 275.107 126.443 279.791 129.338 288.629L106.977 288.677C106.278 259.848 146.729 256.178 164.771 269.675C175.143 277.449 172.538 283.655 172.538 295.582H172.562Z" fill="#8F8E8E"/>
<path d="M157.028 311.132C158.307 318.109 165.712 315.26 165.664 321.49C151.191 321.852 156.064 328.395 155.316 328.395H131.146C133.896 318.351 148.514 314.874 157.028 311.132Z" fill="#E5E5E4"/>
<path d="M589.013 317.651C599.457 344.258 617.789 377.82 625.074 405.055C625.628 407.132 627.052 412.975 626.135 413.82C623.53 416.21 564.771 406.311 555.581 409.884C552.879 410.681 546.584 417.731 544.196 420.339C534.451 430.963 522.8 447.092 512.645 456.508C510.499 458.488 509.558 460.516 506.06 459.72L475.475 383.228C476.078 380.983 474.389 376.999 476.464 374.391C477.959 372.508 481.577 372.894 483.435 371.494C486.715 369.007 492.842 360.701 496.677 359.518C505.723 356.717 517.47 366.52 526.587 367.655L543.617 344.331L575.674 343.631C577.193 336.484 580.498 330.061 582.548 323.083C583.947 318.327 579.485 316.685 589.037 317.651H589.013Z" fill="#D23333"/>
<path d="M626.135 118.745C629.56 119.735 649.581 135.791 649.677 137.288C649.87 140.596 637.858 156.87 637.496 163.968C637.231 169.377 652.475 183.019 652.33 189.827C652.186 196.25 636.049 204.073 634.818 211.727C633.202 221.771 642.296 235.268 641.596 241.932C641.379 244.105 618.971 253.377 616.293 258.592C612.675 265.594 617.837 281.94 614.243 287.132C611.204 291.526 591.135 292.226 585.949 295.582C583.223 297.345 585.25 301.232 584.671 302.343C584.43 302.802 581.8 303.598 580.811 306.037C579.316 309.731 576.445 323.373 575.746 324.001C572.031 327.236 553.53 320.355 546.873 322.383C540.843 324.242 532.955 344.138 526.37 345.755C519.785 347.373 506.88 336.411 498.872 337.667C492.794 338.633 481.746 350.778 476.271 354.592L450.292 337.208L422.384 345.78C416.716 344.331 410.082 324.822 401.857 322.335L373.032 323.977C372.092 318.085 370.114 312.387 368.474 306.689C368.112 305.458 368.835 303.526 368.474 302.319C384.635 293.288 393.728 307.486 405.596 308.886C407.55 309.128 410.131 309.007 412.157 308.886C415.944 314.657 426.629 317.868 433.118 319.582C486.522 333.707 539.781 317.916 578.11 281.578C603.316 257.651 619.333 220.105 621.769 184.298C622.806 169.28 619.767 153.876 619.574 138.399C619.574 138.23 621.094 137.457 621.094 135.622C621.118 132.749 617.741 120.049 619.574 118.721C619.839 118.527 625.797 118.648 626.111 118.721L626.135 118.745Z" fill="#F69F1D"/>
<path d="M359.766 326.391C370.259 328.902 368.811 345.925 373.081 354.568L404.197 355.148L422.215 378.713C427.329 377.748 450.92 366.061 453.621 367.969C454.321 368.452 457.191 382.528 457.263 384.701C457.577 393.683 457.263 416.307 455.84 424.758C455.044 429.659 445.42 455.229 442.911 458.392C441.054 460.734 440.017 459.671 437.339 459.816C428.921 451.221 399.493 410.222 390.979 407.663C384.635 405.756 378.291 409.353 371.875 409.546C359.645 409.957 346.741 408.605 334.632 409.426C326.889 409.957 320.015 416.452 323.633 404.983C331.496 380.114 349.732 350.729 359.742 326.391H359.766Z" fill="#D23333"/>
<path d="M484.207 9.46483L479.841 26.9458C488.09 28.9256 484.979 19.6298 493.759 22.8894C494.41 23.1309 502.563 30.9055 501.67 33.5132C483.893 30.7124 455.261 29.6258 437.605 33.5132C435.989 33.8754 436.495 37.2315 434.59 37.7868C427.426 39.8392 419.562 39.477 412.133 44.4508L403.425 33.5373C401.906 49.2798 386.709 64.3221 370.669 64.1531C369.945 67.9439 373.298 65.6742 375.035 66.3261C368.643 79.4851 356.92 87.9117 349.249 100.636C327.082 137.433 327.01 166.793 331.351 208.395L322.62 199.63C322.523 203.252 322.523 208.347 320.521 211.365C319.194 213.369 316.203 212.572 316.059 212.765C310.245 204.459 300.814 198.906 296.689 189.441L311.572 163.606L300.597 135.453C304.119 132.411 321.414 119.952 322.282 117.369C325.225 108.773 317.482 95.8795 320.883 86.4389L348.501 74.7769C348.646 64.5877 350.262 54.4468 353.446 44.7406L383.429 41.9639C385.865 37.6903 394.235 18.6882 396.792 17.0946C403.666 12.821 418.597 22.1892 425.858 20.1369C431.333 18.5916 440.861 2.70425 446.433 1.06239C455.599 -1.6177 466.043 12.3622 472.556 13.4729C475.402 13.9558 479.768 9.94773 484.182 9.51312L484.207 9.46483Z" fill="#F9C51A"/>
<path d="M586.842 311.083L589.037 313.28C589.471 314.343 588.603 316.564 589.037 317.651C579.485 316.685 583.972 318.327 582.548 323.083C580.474 330.061 577.194 336.484 575.674 343.631L543.617 344.331L526.588 367.655C517.494 366.52 505.747 356.717 496.678 359.518C492.866 360.701 486.715 369.007 483.435 371.494C481.578 372.894 477.984 372.484 476.464 374.391C474.39 376.999 476.078 380.983 475.475 383.228C472.749 393.442 466.502 402.11 462.377 411.647L460.182 418.214C459.145 420.653 459.917 423.913 455.816 424.782C457.215 416.307 457.553 393.707 457.24 384.725C457.167 382.528 454.297 368.476 453.597 367.993C450.896 366.085 427.305 377.772 422.192 378.737L404.173 355.172L373.057 354.592C368.788 345.949 370.235 328.926 359.742 326.415C361.672 321.731 365.459 311.397 366.303 306.737H368.498C370.138 312.435 372.116 318.134 373.057 324.025L401.882 322.383C410.107 324.846 416.74 344.379 422.409 345.828L450.317 337.256L476.295 354.641C481.771 350.826 492.818 338.681 498.897 337.715C506.905 336.435 519.52 347.494 526.395 345.804C533.269 344.114 540.843 324.291 546.898 322.431C553.531 320.403 572.056 327.285 575.77 324.049C576.47 323.446 579.34 309.779 580.836 306.085C581.825 303.647 584.454 302.85 584.695 302.391C585.564 305.24 585.901 308.331 586.89 311.132L586.842 311.083Z" fill="#B21F24"/>
<path d="M514.793 16.0081C515.709 17.8189 514.937 21.4648 518.338 22.5272C521.426 23.493 523.138 20.4507 523.524 20.3783C525.309 20.1127 528.228 20.1851 530.085 20.3783C530.905 20.4749 532.546 23.0825 537.37 22.5755C547.404 21.5131 548.634 13.159 556.281 24.7485C556.377 25.4729 556.184 26.2214 556.281 26.9457C557.318 34.8894 558.186 32.0162 560.647 35.6862C562.769 38.8492 559.272 40.8291 567.208 42.2536C569.017 42.5675 571.718 42.2778 573.769 42.2536L578.134 44.4508C581.921 45.8512 591.715 42.5675 595.767 45.3925C599.409 47.9277 598.854 69.6581 603.269 75.0183C606.428 78.8573 620.274 80.0887 623.989 85.9801C621.769 85.8835 618.634 85.5213 616.704 86.2457C613.279 87.5736 610.095 102.906 610.867 103.437C611.639 103.968 615.908 103.195 618.682 105.441C621.456 107.686 620.467 112.443 623.964 112.201L628.355 96.9177C627.944 104.33 625.412 111.26 626.16 118.769C625.846 118.672 619.864 118.576 619.623 118.769C617.79 120.097 621.166 132.797 621.142 135.67C621.142 137.505 619.623 138.278 619.623 138.447C611.783 138.592 612.169 124.588 609.588 118.986C606.211 111.694 596.515 92.3785 592.848 86.5596C591.835 84.966 586.529 83.5897 584.671 81.6098C584.237 81.1511 584.454 77.964 582.597 76.0565C561.539 54.64 531.123 38.1731 501.695 33.5373C502.611 30.9296 494.458 23.155 493.783 22.9135C485.003 19.654 488.091 28.9498 479.865 26.9699L484.231 9.48894C484.882 9.41651 485.92 9.34407 486.426 9.48894C487.15 9.73039 487.946 11.0101 488.621 11.6861C489.345 12.4105 489.321 15.8874 490.816 11.6861C493.349 4.58752 493.807 7.58149 500.658 2.99396C501.936 4.99799 499.21 7.19518 499.886 10.165C501.309 16.2737 509.582 14.7767 514.817 16.0564L514.793 16.0081ZM617.404 107.831H613.062V118.745H615.209L617.404 107.831Z" fill="#F7B618"/>
<path d="M316.082 212.741C316.227 212.548 319.218 213.345 320.545 211.341C322.547 208.322 322.571 203.228 322.643 199.606L331.375 208.371C331.665 211.22 331.23 214.238 331.375 217.111C331.592 221.554 330.121 222.013 335.741 221.481C339.721 235.703 346.813 251.663 355.327 263.735C356.871 265.932 359.621 265.015 359.766 265.208C368.184 276.049 378.604 293.747 392.353 296.983L405.62 308.91C393.752 307.51 384.683 293.337 368.497 302.343C368.256 301.57 366.664 300.87 366.302 300.146C365.868 299.228 367.557 297.079 364.807 295.751C359.163 293.047 337.936 292.033 334.535 287.132C331.134 282.23 335.862 266.27 332.436 258.641C329.904 252.991 310.173 244.974 309.425 241.811C308.364 237.224 312.223 226.455 313.911 221.457H318.277L316.107 217.087C316.565 215.976 315.624 213.32 316.107 212.717L316.082 212.741ZM326.985 225.828L325.924 212.741C320.521 216.556 323.608 220.709 324.838 225.828H326.985Z" fill="#F7B618"/>
<path d="M623.964 85.956C624.712 85.9801 625.581 85.787 626.159 85.956L628.354 88.1532C628.764 90.3745 628.499 94.3826 628.354 96.8936L623.964 112.177C620.467 112.443 621.408 107.638 618.682 105.417C615.956 103.195 611.639 103.92 610.867 103.413C610.095 102.906 613.279 87.5495 616.704 86.2216C618.634 85.4731 621.769 85.8353 623.989 85.956H623.964Z" fill="#F69F1D"/>
<path d="M486.401 9.46482C487.318 3.33201 503.334 -1.97988 506.06 0.724355C506.542 1.20725 505.65 3.91149 506.06 5.09459L503.913 6.18111L506.06 7.26763C510.571 11.0101 509.944 6.39841 514.792 16.0081C518.096 16.829 521.715 16.9497 523.524 20.3783C523.114 20.4266 521.425 23.493 518.338 22.5272C514.961 21.4649 515.708 17.819 514.792 16.0081C509.533 14.7043 501.26 16.2254 499.861 10.1167C499.161 7.14691 501.911 4.94972 500.633 2.94569C493.782 7.55737 493.3 4.5634 490.791 11.6379H488.596C487.921 10.9618 487.149 9.68213 486.401 9.44068V9.46482Z" fill="#FCC23D"/>
<path d="M530.061 20.4025C534.644 16.66 552.734 14.2938 555.967 18.5916C557.028 19.992 556.039 22.9377 556.256 24.7727C548.61 13.159 547.379 21.5131 537.345 22.5997C532.521 23.1067 530.881 20.4991 530.061 20.4025Z" fill="#FCC23D"/>
<path d="M567.183 42.2536C559.247 40.8291 562.745 38.8492 560.622 35.6862V33.489C562.19 35.7103 566.797 37.7627 567.183 42.2295V42.2536Z" fill="#FDDC59"/>
<path d="M560.646 33.5132V35.7104C558.186 32.0403 557.317 34.9136 556.28 26.9699C560.381 27.5011 559.633 32.0886 560.646 33.5373V33.5132Z" fill="#FCC23D"/>
<path d="M316.083 217.111L318.254 221.481H313.888C314.756 218.922 315.721 217.956 316.083 217.111Z" fill="#F9C51A"/>
<path d="M460.206 418.19L462.401 411.623C461.798 413.023 461.412 415.414 460.206 418.19Z" fill="#D23333"/>
<path d="M368.498 302.343C368.86 303.55 368.136 305.482 368.498 306.713H366.303C366.665 304.757 366.062 302.27 366.303 300.146C366.641 300.87 368.257 301.57 368.498 302.343Z" fill="#FDB937"/>
<path d="M578.11 44.4267L573.744 42.2295C579.437 42.157 576.783 43.9196 578.11 44.4267Z" fill="#FDDC59"/>
<path d="M589.012 313.281L586.817 311.083C586.866 311.228 588.265 311.47 589.012 313.281Z" fill="#D23333"/>
<path d="M628.33 88.1531L626.135 85.9559C627.679 86.3905 627.992 86.3664 628.33 88.1531Z" fill="#F7B618"/>
<path d="M506.06 7.26765L503.913 6.18113L506.06 5.0946C506.301 5.81895 505.746 7.00205 506.06 7.29179V7.26765Z" fill="#F7B618"/>
<path d="M621.769 184.322C619.333 220.129 603.317 257.675 578.11 281.602C539.782 317.965 486.522 333.731 433.118 319.606C426.63 317.892 415.92 314.681 412.157 308.91C419.297 308.5 445.372 307.655 449.955 306.303C453.428 305.264 456.805 299.276 462.377 296.886C473.569 292.105 501.478 295.606 505.023 291.478C506.085 290.246 505.578 287.687 506.036 287.059C512.018 279.309 524.778 279.816 532.232 278.319C545.137 275.735 549.382 273.707 554.061 260.838C555.05 258.109 551.649 255.429 558.427 256.467C558.837 256.54 559.899 259.848 562.745 257.747C564.651 256.323 565.35 252.725 567.159 250.987C571.067 247.22 583.851 236.669 585.732 232.419C587.71 227.928 585.805 221.916 587.252 219.719C588.482 217.836 596.659 214.842 600.084 207.453C605.053 196.733 605.005 177.369 621.769 184.347V184.322Z" fill="#FDB937"/>
<path d="M584.647 81.5858C586.504 83.5656 591.811 84.9419 592.824 86.5355C596.49 92.3544 606.187 111.67 609.564 118.962C612.145 124.564 611.759 138.568 619.598 138.423C619.791 153.9 622.806 169.304 621.793 184.322C605.029 177.345 605.077 196.709 600.108 207.429C596.683 214.817 588.506 217.811 587.276 219.695C585.829 221.892 587.71 227.928 585.756 232.395C583.899 236.645 571.091 247.196 567.183 250.962C565.374 252.701 564.674 256.323 562.769 257.723C559.947 259.824 558.885 256.492 558.451 256.443C560.164 247.027 569.064 237.321 574.781 230.15C585.226 209.312 590.46 161.143 580.16 140.041C577.676 134.922 577.266 134.246 574.757 127.534C573.72 124.757 570.367 122.825 569.378 120.942C565.302 113.288 564.071 112.274 559.633 105.465C558.186 103.22 558.813 99.5979 558.451 99.0908C569.233 96.3625 575.481 86.8735 584.647 81.6099V81.5858Z" fill="#FCC23D"/>
<path d="M383.767 247.703C391.654 247.655 393.681 256.854 397.54 260.21C398.746 261.272 400.917 260.524 401.23 260.814C412.64 270.423 420.913 278.584 436.109 283.824C459.845 292.033 481.674 288.725 506.036 287.035C505.554 287.663 506.085 290.198 505.023 291.453C501.478 295.582 473.545 292.081 462.377 296.862C456.805 299.252 453.428 305.24 449.955 306.278C445.396 307.631 419.321 308.451 412.157 308.886C410.131 309.007 407.574 309.128 405.596 308.886L392.33 296.958C378.581 293.699 368.16 276.025 359.742 265.184C364.687 260.476 377.423 247.727 383.767 247.703Z" fill="#FCC23D"/>
<path d="M401.255 92.5234C367.003 122.994 353.953 173.53 369.632 217.063C373.588 228.049 383.357 236.451 383.791 247.703C377.447 247.751 364.711 260.476 359.766 265.184C359.622 264.991 356.872 265.908 355.328 263.711C346.813 251.663 339.722 235.703 335.742 221.457C334.898 218.415 337.937 216.145 331.376 217.087C331.231 214.214 331.665 211.196 331.376 208.347C327.034 166.745 327.107 137.385 349.274 100.588C356.944 87.8634 368.667 79.4368 375.059 66.2778C383.719 69.5374 396.599 79.2195 400.772 87.5254C401.592 89.1672 400.845 91.4851 401.255 92.4992V92.5234Z" fill="#FDDC59"/>
<path d="M501.695 33.5132C531.098 38.149 561.539 54.6159 582.597 76.0324C584.454 77.9399 584.237 81.127 584.671 81.5858C575.505 86.8493 569.258 96.3624 558.476 99.0667C558.259 98.7528 555.509 98.9701 554.279 97.8353C527.191 72.7004 496.292 63.0183 459.145 66.302C447.133 67.3644 419.418 76.7568 412.181 85.956C413.001 82.5998 417.102 75.3805 419.442 73.5455C423.156 70.6481 436.109 69.2477 436.206 63.0183C436.206 62.1249 422.722 59.4449 419.442 56.8131C417.03 54.8815 413.001 47.8553 412.157 44.4267C419.587 39.4528 427.45 39.815 434.614 37.7627C436.495 37.2315 436.013 33.8512 437.629 33.4891C455.262 29.6017 483.917 30.6882 501.695 33.4891V33.5132Z" fill="#FDDC59"/>
<path d="M412.157 44.4267C413.001 47.8552 417.005 54.8814 419.441 56.813C422.722 59.4448 436.229 62.1249 436.205 63.0183C436.109 69.2477 423.156 70.6481 419.441 73.5455C417.101 75.3805 413.001 82.5757 412.181 85.9559C411.771 86.4871 409.986 86.7044 409.045 88.2739C405.355 94.4791 406.995 106.383 401.254 92.4992C400.82 91.4851 401.592 89.1431 400.772 87.5254C396.599 79.2195 383.718 69.5374 375.058 66.2778C373.322 65.6259 369.969 67.8955 370.693 64.1048C386.757 64.2738 401.953 49.2315 403.449 33.489L412.157 44.4025V44.4267Z" fill="white"/>
<path d="M617.403 107.831L615.208 118.745H613.062V107.831H617.403Z" fill="#F69F1D"/>
<path d="M488.572 11.6379H490.767C489.272 15.8391 489.296 12.3622 488.572 11.6379Z" fill="#F9C51A"/>
<path d="M326.985 225.828H324.839C323.584 220.685 320.497 216.532 325.924 212.741L326.985 225.828Z" fill="#F9C51A"/>
<path d="M331.376 217.111C337.937 216.17 334.898 218.439 335.742 221.481C330.122 222.013 331.593 221.554 331.376 217.111Z" fill="#F9C51A"/>
<path d="M569.378 120.942C570.391 122.849 573.744 124.781 574.757 127.534C577.265 134.27 577.651 134.946 580.16 140.041C590.46 161.143 585.225 209.337 574.781 230.149C569.088 237.296 560.163 247.003 558.451 256.443C551.673 255.405 555.074 258.085 554.085 260.814L544.099 265.111L532.255 278.294C524.802 279.791 512.042 279.284 506.06 287.035C481.698 288.701 459.868 292.009 436.133 283.824C420.937 278.584 412.663 270.423 401.254 260.814C405.258 257.482 408.997 252.604 414.352 252.073C486.667 305.168 581.197 247.993 569.209 159.357C567.882 149.554 560.405 139.534 558.475 129.682C562.069 127.099 567.665 126.375 569.402 120.942H569.378Z" fill="#EDB153"/>
<path d="M554.085 260.814C549.406 273.683 545.137 275.711 532.256 278.294L544.099 265.111L554.085 260.814Z" fill="#FCC23D"/>
<path d="M558.451 99.0667C558.813 99.5737 558.185 103.195 559.633 105.441C564.071 112.25 565.301 113.264 569.378 120.918C567.665 126.35 562.069 127.075 558.451 129.658C557.968 129.996 556.714 129.296 556.256 129.658C549.044 115.823 538.503 104.499 525.067 96.4107C462.232 58.5998 383.211 101.578 379.328 174.375C377.88 201.465 392.136 234.061 414.352 249.876V252.073C408.997 252.604 405.258 257.506 401.254 260.814C400.916 260.524 398.769 261.272 397.563 260.21C393.728 256.854 391.678 247.655 383.79 247.703C383.356 236.451 373.587 228.073 369.631 217.063C353.952 173.53 367.002 122.994 401.254 92.5234C406.995 106.407 405.33 94.4791 409.045 88.298C409.986 86.7286 411.771 86.4872 412.181 85.9801C419.393 76.7809 447.132 67.3885 459.144 66.3262C496.291 63.0424 527.19 72.7246 554.278 97.8594C555.508 98.9942 558.258 98.8011 558.475 99.0908L558.451 99.0667Z" fill="#ECC064"/>
<path d="M558.452 129.682C560.405 139.534 567.859 149.554 569.185 159.357C581.174 247.993 486.667 305.144 414.328 252.073V249.876C420.117 251.3 417.802 245.53 419.176 243.912C419.804 243.188 431.719 237.079 435.434 233.844C438.449 231.212 438.136 225.465 444.89 225.828C446.795 225.924 450.341 228.001 454.562 228.121C462.257 228.314 505.385 229.039 508.352 227.059C511.319 225.079 511.247 208.926 510.089 205.353C508.014 198.954 496.292 202.938 495.085 201.779C494.386 201.103 495.11 185.361 495.085 182.101C505.964 184.757 499.837 175.123 501.695 173.433C502.129 173.047 507.435 173.554 510.282 172.25C515.637 169.763 520.485 159.743 524.151 156.58C526.612 154.455 535.947 151.244 539.396 147.284C541.639 144.701 541.133 140.741 543.038 139.437C545.281 137.916 549.189 139.147 551.312 137.892C552.855 136.974 554.279 131.204 556.208 129.682C556.667 129.32 557.921 130.02 558.403 129.682H558.452Z" fill="#FDD86D"/>
<path d="M556.28 129.682C554.327 131.204 552.928 136.998 551.384 137.892C549.237 139.147 545.354 137.892 543.11 139.437C541.181 140.741 541.711 144.701 539.468 147.284C536.019 151.244 526.684 154.479 524.223 156.58C520.557 159.743 515.709 169.787 510.354 172.25C507.508 173.578 502.201 173.047 501.767 173.433C499.885 175.123 506.012 184.757 495.158 182.101C495.109 173.457 497.401 120.942 495.158 118.697C494.603 118.141 481.577 118.407 479.189 119.131C476.247 120 472.846 125.216 467.973 127.582C461.219 130.866 452.391 132.363 444.913 131.831V155.904H460.206V201.803C439.824 198.544 445.348 210.858 444.913 225.852C438.159 225.49 438.473 231.236 435.458 233.868C431.743 237.103 419.827 243.212 419.2 243.936C417.801 245.53 420.141 251.3 414.352 249.9C392.161 234.085 377.881 201.49 379.328 174.399C383.236 101.602 462.232 58.6239 525.068 96.4349C538.503 104.523 549.044 115.847 556.256 129.682H556.28Z" fill="#FDE781"/>
<path d="M444.913 225.852C445.323 210.858 439.799 198.544 460.206 201.803V155.904H444.913V131.855C452.391 132.387 461.219 130.89 467.973 127.606C472.845 125.24 476.246 120.049 479.189 119.155C481.601 118.455 494.603 118.165 495.157 118.721C497.401 120.966 495.109 173.481 495.157 182.125C495.157 185.385 494.434 201.127 495.157 201.803C496.363 202.962 508.086 198.978 510.161 205.377C511.318 208.926 511.318 225.127 508.424 227.083C505.529 229.039 462.329 228.339 454.634 228.145C450.389 228.025 446.843 225.972 444.961 225.852H444.913Z" fill="#E99323"/>
<path d="M871.566 506.367C871.784 506.971 873.496 508.275 874.051 509.796C881.118 528.605 889.44 547.196 895.47 566.223C881.143 565.402 866.863 563.349 852.535 563.832L823.035 594.158C821.105 594.158 810.154 562.577 808.393 558.279C807.043 554.971 805.282 549.756 802.436 547.631C803.159 545.748 803.859 543.044 805.041 541.595C805.788 540.677 814.593 533.917 815.654 533.579C822.528 531.261 828.1 537.708 834.806 538.215L845.902 523.703L864.788 523.559C865.753 522.714 867.779 507.792 871.542 506.392L871.566 506.367Z" fill="#D23333"/>
<path d="M891.491 411.937C897.98 410.005 894.362 417.321 896.146 417.273C898.076 417.224 894.579 410.609 899.451 411.937C898.92 415.414 900.609 415.703 902.129 417.273C903.769 418.939 911.005 427.245 911.295 428.766C911.922 431.953 900.537 440.403 899.644 443.494C898.269 448.323 905.071 456.267 903.286 461.627C902.104 465.176 890.912 468.17 889.489 470.488C887.005 474.569 887.752 485.482 887.439 490.384L868.866 494.416C868.48 494.73 869.927 498.52 870.192 499.728C864.982 499.269 866.405 509.144 863.607 511.1C859.386 514.021 849.931 509.048 845.251 511.245L834.758 524.887L817.729 519.623L802.822 530.174C800.675 530.633 791.509 520.613 788.253 520.034C783.622 519.213 774.842 526.07 770.066 525.104C768.353 524.766 763.022 510.279 756.606 510.303C754.508 510.303 752.216 511.534 749.925 511.703C741.289 512.428 741.169 512.983 739.963 505.064C738.974 498.496 740.71 499.945 735.983 494.416C735.669 494.054 736.827 492.46 735.066 491.784C731.81 490.553 729.012 491.832 728.023 491.784C727.154 491.711 726.238 491.832 725.369 491.784C726.455 487.655 720.907 489.635 720.063 487.124C717.602 479.88 725.176 487.027 726.358 487.462C729.711 488.766 735.621 488.21 738.66 489.804C740.614 490.842 740.927 494.247 744.521 495.864C747.295 497.096 749.442 496.661 750.624 497.12C764.325 502.408 777.23 510.279 792.498 511.752C841.729 516.532 887.969 480.315 891.491 430.601C892.239 430.504 893.951 430.842 894.12 430.601C894.82 429.587 896.581 418.045 891.491 419.977C891.443 417.369 891.732 414.568 891.491 411.985V411.937Z" fill="#F6963C"/>
<path d="M733.353 511.679C738.346 515.687 739.335 524.307 741.458 530.174L759.935 529.571C763.601 532.323 767.195 543.14 771.272 543.695C776.289 544.372 786.372 536.452 789.917 539.494C794.886 543.744 789.145 563.832 793.174 570.231C790.183 577.088 785.793 586.335 783.863 593.289C783.356 595.1 781.885 594.014 780.607 594.11C775.565 589.885 756.437 563.663 752.361 562.456C749.201 561.514 745.535 563.518 742.085 563.639C731.641 563.977 721.052 562.504 710.8 564.895C710.077 564.195 714.635 552.315 715.456 550.287C720.762 537.273 728.119 524.669 733.378 511.703L733.353 511.679Z" fill="#D23333"/>
<path d="M870.24 499.728C870.674 501.659 871.036 504.943 871.567 506.367C867.804 507.768 865.778 522.714 864.813 523.535L845.926 523.679L834.831 538.19C828.149 537.683 822.553 531.237 815.678 533.555C814.617 533.917 805.813 540.653 805.065 541.571C803.883 543.019 803.184 545.724 802.46 547.607C799.445 555.502 796.55 562.48 793.149 570.231C789.145 563.832 794.862 543.744 789.893 539.494C786.347 536.476 776.265 544.396 771.247 543.695C767.171 543.14 763.577 532.299 759.911 529.571L741.434 530.174C739.311 524.331 738.322 515.712 733.329 511.679C734.583 508.589 735.404 505.667 735.982 502.359C738.226 501.828 738.877 503.398 739.962 505.015C741.168 512.935 741.313 512.38 749.924 511.655C752.24 511.462 754.532 510.255 756.606 510.255C763.022 510.255 768.353 524.718 770.066 525.056C774.841 526.021 783.622 519.164 788.253 519.985C791.509 520.565 800.675 530.585 802.822 530.126L817.729 519.575L834.758 524.838L845.251 511.196C849.93 508.975 859.362 513.973 863.607 511.052C866.405 509.096 864.982 499.221 870.192 499.679L870.24 499.728Z" fill="#B21F24"/>
<path d="M811.771 318.81L807.791 324.122C810.203 322.794 820.937 323.252 822.215 324.339C822.433 324.532 822.963 327.719 824.314 329.53C826.461 332.379 828.68 332.476 831.237 333.997C831.816 334.335 831.936 336.001 832.37 336.122C837.942 337.788 834.782 331.92 835.699 330.761C836.037 330.327 841.705 331.582 842.164 332.282C842.984 333.514 841.946 337.16 842.332 339.212C842.549 340.323 845.999 339.961 844.986 342.761C837.508 338.995 820.744 333.973 812.495 333.393C795.513 332.21 779.473 334.721 763.939 341.433L759.959 334.794C757.499 345.152 749.852 353.458 738.684 353.409C738.564 354.906 742.351 355.462 743.991 356.065L734.005 365.361C724.597 377.192 714.949 396.798 713.429 411.937C709.956 410.174 709.039 404.017 709.329 400.613C709.618 397.208 716.227 388.106 714.756 386.657C714.563 386.488 711.162 385.884 710.824 387.647C709.739 393.321 706.675 391.679 702.792 393.297C703.612 389.796 709.835 388.057 710.607 385.764C711.837 382.069 707.496 371.88 709.642 366.882L725.176 361.16L728.65 342.689C730.049 340.419 743.147 341.94 747.416 338.85C750.335 336.725 753.712 325.063 754.797 324.29C757.33 322.48 768.691 327.671 773.539 326.488C778.894 325.184 782.705 314.898 787.143 314.802C791.051 314.729 799.325 322.045 802.026 322.528C803.401 322.769 809.528 319.582 811.771 318.785V318.81Z" fill="#E79A6C"/>
<path d="M821.057 317.482C822.649 320.162 815.92 320.379 818.404 322.794C818.911 323.301 821.636 321.103 823.687 322.069C826.485 323.397 827.232 328.709 831.116 329.409C834.131 329.94 832.635 327.188 832.997 326.802C833.094 326.705 835.072 326.705 835.651 326.802C837.243 327.091 840.21 330.761 839.631 325.474C840.499 325.45 841.416 325.425 842.284 325.474C843.08 325.522 845.878 329.095 847.591 324.146C848.049 324.146 848.555 324.049 848.917 324.146L850.244 325.474C850.702 325.812 851.257 326.343 851.571 326.802C851.329 329.337 851.233 332.596 854.224 333.441C854.345 333.828 854.103 334.359 854.224 334.769C855.382 338.971 854.127 339.381 858.204 340.081C862.28 340.782 873.062 340.878 875.499 342.061C879.623 344.065 877.935 355.703 880.106 360.073L896.532 366.882C897.545 378.761 890.767 382.939 901.429 391.921C903.165 393.393 908.327 395.735 908.569 396.098C910.474 399.019 906.157 400.975 906.06 401.265L903.383 399.454C902.345 405.249 898.462 397.812 901.742 397.257C903.069 397.039 906.88 397.522 904.733 394.625C904.42 394.214 896.388 389.675 895.447 390.617C893.083 392.983 899.041 392.572 898.124 396.605C897.931 397.498 895.013 396.846 895.423 397.908C898.486 401.023 901.091 407.663 902.056 411.888C902.394 413.361 901.815 415.558 902.056 417.2C900.536 415.655 898.848 415.365 899.378 411.864C894.506 410.536 898.004 417.152 896.074 417.2C894.289 417.249 897.907 409.933 891.419 411.864C890.212 398.343 882.687 378.254 874.172 367.631C872.725 365.82 869.975 365.264 868.817 363.961C861.677 355.993 855.671 348.122 844.889 342.689C845.878 339.912 842.429 340.25 842.236 339.14C841.85 337.087 842.887 333.466 842.067 332.21C841.609 331.51 835.94 330.254 835.602 330.689C834.686 331.848 837.846 337.691 832.274 336.049C831.864 335.928 831.719 334.262 831.14 333.924C828.583 332.403 826.364 332.307 824.217 329.458C822.867 327.647 822.336 324.46 822.119 324.266C820.84 323.18 810.106 322.721 807.694 324.049L811.674 318.737C812.06 318.592 812.615 318.882 813.001 318.737C813.604 318.52 814.062 317.989 814.328 317.409C814.738 317.289 815.244 317.53 815.654 317.409C816.619 317.144 819.441 316.057 819.634 316.081C820.165 316.105 820.647 317.289 820.961 317.409L821.057 317.482Z" fill="#ED9958"/>
<path d="M702.792 393.297C706.675 391.679 709.739 393.321 710.824 387.647C711.162 385.86 714.563 386.464 714.756 386.657C716.227 388.081 709.618 397.257 709.328 400.613C709.039 403.969 709.931 410.174 713.429 411.937C711.379 432.412 717.916 459.575 731.23 475.245C731.809 475.921 733.257 475.655 733.353 475.776C734.221 476.911 734.607 481.281 736.416 483.357C739.986 487.462 749.152 491.18 750.624 497.048C749.466 496.589 747.295 497.048 744.521 495.792C740.927 494.198 740.638 490.77 738.66 489.732C735.62 488.138 729.711 488.693 726.358 487.39C725.176 486.931 717.602 479.808 720.062 487.052C720.931 489.563 726.454 487.583 725.369 491.711C724.018 491.615 717.795 490.577 717.53 490.263C716.107 488.621 719.242 475.293 716.179 470.995C714.008 467.977 702.526 463.631 701.562 462.303C700.717 461.12 708.195 446.633 704.191 440.428C702.189 437.313 694.566 433.208 695.073 428.742C695.411 425.941 700.355 420.267 702.792 418.552C704.022 417.707 705.879 419.349 706.796 415.196C708.147 409.063 704.842 411.092 704.118 410.56C703.515 410.126 702.936 408.122 701.465 407.904C701.465 407.47 701.537 406.987 701.465 406.576C700.524 400.54 697.63 399.164 701.465 393.273C701.827 393.104 702.406 393.442 702.792 393.273V393.297Z" fill="#ED9958"/>
<path d="M902.129 411.937C901.164 407.711 898.535 401.071 895.495 397.957C895.061 396.894 897.98 397.546 898.197 396.653C899.113 392.621 893.131 393.031 895.519 390.665C896.46 389.723 904.516 394.263 904.806 394.673C906.953 397.546 903.142 397.063 901.815 397.305C898.559 397.86 902.418 405.297 903.455 399.502L906.133 401.313C905.891 401.989 906.398 403.317 906.133 403.969C903.069 403.172 902.732 406.021 902.321 408.484L903.455 409.281C903.069 409.908 903.335 411.405 902.129 411.937Z" fill="#F6963C"/>
<path d="M833.021 326.802C832.635 327.188 834.155 329.94 831.14 329.409C827.256 328.733 826.508 323.397 823.71 322.069C821.66 321.103 818.934 323.301 818.428 322.794C815.943 320.379 822.673 320.162 821.081 317.482C826.726 319.751 828.197 323.47 833.045 326.802H833.021Z" fill="#E79A6C"/>
<path d="M740.01 505.04C738.925 503.398 738.274 501.852 736.03 502.384C736.561 499.414 737.067 497.941 736.03 494.392C740.782 499.921 739.021 498.472 740.01 505.04Z" fill="#E79A6C"/>
<path d="M704.119 410.584C704.842 411.116 708.123 409.087 706.796 415.22C705.879 419.373 704.022 417.707 702.792 418.576L704.119 411.937V410.609V410.584Z" fill="#E79A6C"/>
<path d="M728.047 491.736C729.035 491.808 731.834 490.504 735.09 491.736C736.851 492.412 735.717 494.029 736.007 494.367L728.022 491.711L728.047 491.736Z" fill="#ED9958"/>
<path d="M854.272 334.769C857.746 333.924 857.553 337.353 858.252 340.081C854.176 339.381 855.43 338.946 854.272 334.769Z" fill="#E79A6C"/>
<path d="M906.108 403.945C905.047 406.673 904.926 406.842 903.455 409.257L902.321 408.46C902.731 405.997 903.069 403.148 906.132 403.945H906.108Z" fill="#ED9958"/>
<path d="M701.465 406.601C697.581 403.462 696.375 395.494 701.465 393.297C697.63 399.188 700.524 400.564 701.465 406.601Z" fill="#F6AD84"/>
<path d="M847.639 324.122C845.926 329.071 843.128 325.498 842.332 325.449C843.972 324.363 845.733 324.122 847.639 324.122Z" fill="#E79A6C"/>
<path d="M854.272 333.441C851.257 332.572 851.378 329.337 851.619 326.802C853.5 329.627 853.356 330.617 854.272 333.441Z" fill="#E79A6C"/>
<path d="M839.655 325.474C840.234 330.761 837.267 327.091 835.675 326.802C836.881 326.126 838.256 325.522 839.655 325.474Z" fill="#E79A6C"/>
<path d="M704.119 410.585V411.913C700.308 412.516 701.634 410.995 701.465 407.929C702.937 408.146 703.54 410.15 704.119 410.585Z" fill="#F6AD84"/>
<path d="M819.731 316.154C819.514 316.154 816.716 317.216 815.751 317.482C815.317 314.319 815.944 314.56 819.056 314.826L819.731 316.154Z" fill="#E79A6C"/>
<path d="M813.098 318.81C813.291 318.158 813.773 317.675 814.424 317.482C814.159 318.061 813.701 318.592 813.098 318.81Z" fill="#E79A6C"/>
<path d="M850.292 325.474L848.965 324.146C849.592 324.315 849.906 325.184 850.292 325.474Z" fill="#E79A6C"/>
<path d="M868.889 364.033C870.047 365.337 872.797 365.892 874.244 367.703C882.759 378.327 890.284 398.391 891.49 411.937C891.732 414.496 891.442 417.297 891.49 419.929C891.563 423.357 891.732 427.172 891.49 430.577C887.969 480.291 841.704 516.484 792.497 511.728C777.229 510.255 764.348 502.384 750.623 497.096C749.152 491.229 739.986 487.51 736.416 483.406C734.607 481.329 734.221 476.959 733.353 475.824C732.388 472.371 735.692 473.482 736.006 473.168C738.828 473.482 738.973 473.337 738.659 470.512C742.47 468.919 744.231 464.717 746.643 465.2C747.608 465.393 749.779 467.373 752.722 467.76C757.184 468.339 762.057 467.591 766.567 467.856C769.51 470.005 776.939 474.617 779.544 475.752C802.725 485.965 830.826 479.18 846.987 459.913C862.762 441.08 863.341 421.522 856.925 398.705C856.394 396.798 854.006 392.307 854.272 392.065C854.754 391.655 859.361 391.003 859.578 390.689C859.843 390.327 857.914 384.605 858.107 382.045C858.348 379.244 860.109 377.772 860.832 375.309C861.267 373.812 860.591 371.856 860.881 370.77C861.243 369.442 867.2 364.878 868.865 364.13L868.889 364.033Z" fill="#FAA962"/>
<path d="M891.491 419.905C896.557 417.973 894.82 429.514 894.12 430.528C893.952 430.794 892.239 430.456 891.491 430.528C891.732 427.148 891.564 423.333 891.491 419.88V419.905Z" fill="#ED9958"/>
<path d="M743.991 356.065C744.69 356.307 746.017 355.655 747.561 356.452C748.043 356.693 754.797 363.26 755.328 363.985C757.547 366.955 758.126 370.238 759.911 373.353C752.94 372.194 748.357 382.045 745.269 387.019C744.666 387.985 743.05 388.057 742.616 388.878C731.303 409.232 733.281 433.546 742.085 454.383C743.557 457.86 747.85 460.275 746.62 465.152C744.208 464.693 742.471 468.87 738.636 470.464C734.27 472.299 736.972 472.154 735.983 473.12C735.669 473.434 732.34 472.323 733.329 475.776C733.233 475.631 731.762 475.897 731.207 475.245C717.892 459.575 711.331 432.412 713.405 411.937C714.925 396.798 724.573 377.192 733.981 365.361L743.967 356.065H743.991Z" fill="#FBBB93"/>
<path d="M844.985 342.761C855.767 348.194 861.773 356.065 868.913 364.033C867.249 364.782 861.291 369.369 860.929 370.673C857.456 371.856 855.236 375.671 851.232 374.488C849.037 373.836 838.279 363.188 834.709 361.643C819.851 354.858 800.819 352.057 784.851 356.379C778.966 357.973 774.431 362.343 767.894 362.681C768.738 361.812 769.39 358.504 773.297 356.765C775.299 355.872 778.073 356.283 778.531 356.041C778.7 355.945 778.7 352.178 778.531 352.081C778.121 351.816 775.902 352.081 774.576 351.429C770.21 349.232 765.699 346.021 763.914 341.433C779.472 334.721 795.513 332.21 812.47 333.393C820.743 333.973 837.507 338.995 844.961 342.761H844.985Z" fill="#FBBB93"/>
<path d="M763.914 341.433C765.724 346.021 770.21 349.256 774.576 351.429C775.903 352.081 778.122 351.816 778.532 352.081C778.701 352.178 778.701 355.945 778.532 356.041C778.073 356.283 775.3 355.896 773.297 356.765C769.366 358.504 768.739 361.812 767.894 362.681C764.18 366.52 760.923 368.21 761.237 374.657C760.176 374.995 760.127 373.353 759.934 373.329C758.125 370.214 757.571 366.93 755.351 363.961C754.797 363.236 748.067 356.669 747.584 356.427C746.041 355.631 744.69 356.283 744.015 356.041C742.374 355.462 738.587 354.906 738.708 353.385C749.876 353.433 757.522 345.128 759.983 334.769L763.963 341.409L763.914 341.433Z" fill="white"/>
<path d="M852.945 395.953C853.668 397.522 855.019 399.212 856.925 398.609C863.341 421.45 862.762 441.007 846.987 459.816C830.826 479.108 802.725 485.868 779.544 475.655C776.964 474.52 769.534 469.909 766.567 467.76C765.578 467.035 764.855 465.876 763.914 465.104C769.607 464.379 774.6 459.43 779.472 456.074C781.932 454.383 783.018 453.973 782.536 450.472C798.262 461.748 834.275 456.846 830.295 431.253C829.596 426.713 824.554 419.977 819.73 420.556L826.363 415.896C826.219 417.2 826.46 418.577 826.363 419.88L825.037 420.556L825.712 421.233L826.388 419.905C830.199 420.605 828.51 418.915 829.379 416.983C830.126 415.317 831.622 409.739 831.911 409.474C832.587 408.919 835.312 409.329 836.929 408.556C841.656 406.335 846.649 396.629 852.945 395.953Z" fill="#FCC59D"/>
<path d="M860.93 370.697C860.64 371.784 861.315 373.739 860.881 375.236C860.158 377.723 858.373 379.172 858.156 381.973C857.939 384.532 859.868 390.255 859.627 390.617C859.386 390.931 854.803 391.558 854.32 391.993C854.055 392.234 856.443 396.725 856.974 398.633C855.068 399.236 853.693 397.546 852.994 395.977C827.425 340.178 741.313 362.681 745.366 427.245C746.282 441.659 752.94 455.905 763.963 465.152C764.904 465.949 765.627 467.084 766.616 467.808C762.081 467.542 757.233 468.291 752.771 467.711C749.828 467.325 747.657 465.345 746.692 465.152C747.922 460.275 743.629 457.86 742.157 454.383C733.353 433.546 731.375 409.232 742.688 388.878C743.146 388.081 744.738 387.985 745.341 387.019C748.429 382.021 753.012 372.194 759.983 373.353C760.176 373.377 760.248 375.019 761.285 374.681C760.972 368.258 764.228 366.568 767.943 362.705C774.48 362.367 779.014 357.997 784.9 356.403C800.868 352.081 819.9 354.882 834.758 361.667C838.328 363.212 849.086 373.86 851.281 374.512C855.261 375.695 857.504 371.88 860.978 370.697H860.93Z" fill="#F6AD84"/>
<path d="M738.66 470.464C738.974 473.289 738.829 473.434 736.007 473.12C736.996 472.154 734.294 472.299 738.66 470.464Z" fill="#F6AD84"/>
<path d="M826.388 419.905L825.712 421.233L825.037 420.581L826.388 419.905Z" fill="#FDD3B9"/>
<path d="M763.914 465.128C752.891 455.88 746.21 441.635 745.317 427.22C741.265 362.681 827.401 340.178 852.945 395.953C846.674 396.653 841.657 406.335 836.929 408.556C835.289 409.329 832.587 408.894 831.912 409.474C831.598 409.739 830.127 415.317 829.379 416.983C828.511 418.915 830.175 420.581 826.388 419.904C826.484 418.601 826.243 417.224 826.388 415.921C826.702 413.216 828.511 410.633 828.655 408.411C830.392 382.383 774.383 382.118 777.205 409.257L793.68 409.329C795.778 396.411 811.819 402.762 807.115 411.913C804.92 416.162 797.877 413.748 798.335 421.884C798.721 428.5 804.534 425.313 807.767 430.528C807.911 430.77 809.069 433.039 809.093 433.184C809.214 433.933 809.141 435.043 809.093 435.84C802.629 438.158 801.905 444.291 794.476 438.496C793.197 436.42 791.437 435.212 791.726 431.953L775.854 433.184C775.155 439.027 777.76 447.092 782.512 450.472C783.018 453.973 781.933 454.359 779.448 456.074C774.576 459.43 769.607 464.379 763.89 465.104L763.914 465.128Z" fill="#FDD3B9"/>
<path d="M826.388 415.921L819.755 420.581C824.579 420.001 829.596 426.737 830.32 431.277C834.3 456.894 798.287 461.772 782.56 450.496C777.808 447.092 775.203 439.027 775.903 433.208L791.774 431.977C791.485 435.236 793.246 436.444 794.524 438.52C794.838 439.003 793.752 440.355 795.441 441.176C801.133 444.001 808.659 443.253 809.141 435.84C809.19 435.043 809.262 433.909 809.141 433.184L807.815 430.528C804.607 425.313 798.769 428.524 798.383 421.884C797.925 413.747 804.968 416.162 807.163 411.912C811.867 402.762 795.826 396.411 793.728 409.329L777.253 409.257C774.431 382.093 830.44 382.383 828.703 408.411C828.559 410.609 826.75 413.216 826.436 415.921H826.388Z" fill="#D96C27"/>
<path d="M809.093 435.864C808.611 443.253 801.085 444.025 795.393 441.2C793.704 440.355 794.79 439.027 794.476 438.544C801.905 444.339 802.629 438.182 809.093 435.888V435.864Z" fill="#FCC59D"/>
<path d="M809.093 433.208C809.069 433.063 807.911 430.794 807.767 430.552L809.093 433.208Z" fill="#FCC59D"/>
<path d="M442.187 517.064C447.615 521.096 445.371 520.685 449.255 525.056C458.759 535.824 479.937 551.615 486.667 562.287C488.452 565.136 486.401 566.247 486.498 566.73C472.218 563.977 465.488 569.458 453.814 573.925C441.174 578.754 434.396 572.983 436.881 593.338H463.462V685.595H434.227C430.103 688.251 430.489 704.187 433.311 706.143C434.589 707.205 435.554 705.104 435.988 705.104H513.972C517.807 705.104 516.746 687.479 515.009 686.416C509.509 683.495 490.55 688.831 488.524 682.698C485.991 646.046 491.081 606.569 488.283 570.279C496.315 566.006 497.473 576.509 499.499 578.561C545.812 625.692 591.81 672.847 637.785 720.461C648.133 731.181 661.448 745.571 672.616 754.795H270.252V744.147C270.252 690.956 270.252 637.668 270.252 584.452C266.128 584.356 261.955 584.597 257.83 584.452L270.228 582.666L268.467 579.14C277.73 579.623 275.294 574.625 273.292 568.034C272.64 565.909 270.301 565.16 270.252 564.967C268.323 558.279 270.252 528.508 270.252 518.85C273.195 520.854 276.548 520.589 279.901 520.71C324.549 522.062 377.543 523.028 421.853 520.71C427.739 520.396 436.615 519.044 442.163 517.088L442.187 517.064Z" fill="#C8C8C8"/>
<path d="M677.898 515.301V628.855C671.771 628.903 670.637 636.871 673.459 641.362C674.473 642.955 677.705 642.786 677.898 643.052C678.211 643.462 677.801 646.963 677.898 648.364C679.9 677 680.503 726.593 677.898 754.819C677.801 755.978 677.97 757.185 677.898 758.368C676.282 757.04 674.159 756.123 672.591 754.819C661.423 745.595 648.132 731.205 637.76 720.485C591.785 672.871 545.787 625.716 499.474 578.585C497.448 576.533 496.29 566.03 488.258 570.303C488.137 568.71 486.642 567.43 486.497 566.754C486.401 566.295 488.451 565.16 486.666 562.311C479.936 551.639 458.782 535.848 449.254 525.08C445.395 520.71 447.614 521.096 442.187 517.088C441.535 516.605 441.077 514.432 440.426 513.539C519.446 513.587 599.359 515.47 677.922 515.301H677.898Z" fill="#D8D8D8"/>
<path d="M23.8793 579.165C23.6622 585.37 22.7938 584.066 28.2211 584.501C52.2698 586.384 85.4363 585.466 109.919 584.501C113.344 584.356 117.035 586.336 116.046 580.951L147.765 613.982L144.412 616.444C136.814 616.106 107.652 625.33 116.094 635.012C124.536 644.694 126.032 634.963 132.762 632.283C145.329 627.237 157.365 633.104 156.69 647.374C156.063 660.871 131.942 684.485 122.317 694.577C116.287 700.903 111.994 699.358 114.285 712.276H173.671L176.059 709.33L176.349 698.078H140.891C142.024 691.801 149.236 687.817 153.241 682.939C162.165 672.074 174.25 656.163 172.779 641.289L231.248 699.817V587.157C231.32 582.159 238.653 580.71 241.91 584.501C239.522 584.694 237.013 583.969 234.746 585.273L231.272 749.507C228.233 746.61 225.724 746.127 221.648 745.837C159.85 741.346 92.5278 749.41 30.1508 746.006L23.9034 751.294H22.1426V579.213C22.7215 579.213 23.3245 579.213 23.9034 579.213L23.8793 579.165Z" fill="#C8C8C8"/>
<path d="M270.252 761.893C405.21 758.513 542.386 766.36 677.126 761.99C680.238 761.893 682.94 760.952 685.858 760.083C686.196 764.042 685.352 768.437 684.99 772.517C684.749 775.197 686.003 784.662 683.977 784.976H263.161C263.257 780.823 263.04 776.646 263.161 772.517C263.281 768.726 265.79 765.056 263.161 760.107L270.228 761.869L270.252 761.893Z" fill="#848484"/>
<path d="M22.1185 751.246C89.6093 751.052 158.837 754.988 226.93 753.105L233.033 750.352V703.342C236.531 702.545 237.11 705.418 239.305 707.664C246.613 715.149 260.338 727.704 265.934 735.165C268.322 738.328 267.985 741.394 270.252 744.171V761.918L263.184 760.155C265.814 765.105 263.281 768.799 263.184 772.565H6.15039V753.032C11.2399 754.867 18.5969 751.27 22.1185 751.27V751.246Z" fill="#919191"/>
<path d="M942 753.032V772.565H684.99C685.327 768.485 686.196 764.091 685.858 760.131C682.939 761 680.238 761.942 677.126 762.038C542.386 766.408 405.233 758.561 270.252 761.942V760.179L677.898 758.417C677.97 757.233 677.802 756.026 677.898 754.867C686.992 748.614 694.517 753.177 703.587 753.274C706.892 753.298 710.075 751.97 712.753 751.994C789.096 752.743 865.584 753.732 941.975 753.105L942 753.032Z" fill="#919191"/>
<path d="M924.271 643.028L926.032 644.79V751.245C925.453 751.245 924.85 751.245 924.271 751.245C923.089 747.6 919.278 746.296 917.179 744.147C889.657 716.042 862.328 686.996 835.722 658.07C830.705 652.613 825.567 649.571 821.467 643.004C855.695 643.076 890.019 642.955 924.271 643.004V643.028Z" fill="#D8D8D8"/>
<path d="M259.614 508.203C259.542 506.295 258.818 501.37 260.651 501.08L682.432 501.031L687.787 502.77L688.559 513.514C685.086 512.211 679.948 515.301 677.946 515.301C599.384 515.446 519.47 513.587 440.45 513.539C439.871 513.539 439.268 513.539 438.689 513.539C434.926 510.158 431.935 507.792 430.56 502.77H263.98L259.662 508.203H259.614Z" fill="#E1E1E1"/>
<path d="M798.431 630.617C800.795 634.022 806.126 631.752 809.575 632.452C811.216 632.79 815.485 641.338 818.765 641.41C850.678 641.458 882.638 640.831 914.55 641.241C917.541 641.289 922.438 640.106 924.271 643.052C890.043 643.004 855.719 643.124 821.467 643.052C820.285 643.052 819.103 643.052 817.921 643.052C771.271 642.979 724.549 643.1 677.898 643.052C677.705 642.786 674.473 642.98 673.46 641.362C670.638 636.871 671.772 628.903 677.898 628.855C679.008 628.855 682.53 630.666 685.738 630.714C723.246 631.269 760.899 630.641 798.407 630.641L798.431 630.617Z" fill="#E6E6E6"/>
<path d="M259.615 508.203L263.932 502.746H430.512C431.863 507.792 434.878 510.158 438.641 513.539C382.946 513.49 325.755 515.253 270.252 513.539C266.706 513.418 263.136 513.635 259.615 513.539C259.542 511.776 259.687 509.989 259.615 508.203Z" fill="#D5D5D5"/>
<path d="M268.491 579.164C216.848 575.374 164.433 578.319 112.524 577.402L101.887 566.754C154.35 566.754 208.309 568.396 260.603 566.826C263.98 566.73 267.309 566.995 270.252 564.967C270.3 565.185 272.664 565.933 273.291 568.034C275.293 574.625 277.729 579.623 268.467 579.14L268.491 579.164Z" fill="#E0E0E0"/>
<path d="M798.431 630.617H931.362C930.928 637.547 934.305 642.666 926.031 644.815L924.27 643.052C922.437 640.106 917.54 641.289 914.549 641.241C882.637 640.855 850.677 641.483 818.765 641.41C815.484 641.338 811.239 632.766 809.575 632.452C806.125 631.752 800.795 634.046 798.431 630.617Z" fill="#EEEEEE"/>
<path d="M438.641 513.514C439.22 513.514 439.823 513.514 440.402 513.514C441.077 514.408 441.536 516.581 442.163 517.064C436.615 519.019 427.738 520.372 421.853 520.685C377.542 522.979 324.548 522.038 279.9 520.685C276.523 520.589 273.195 520.854 270.252 518.826V513.514C325.73 515.229 382.946 513.466 438.641 513.514Z" fill="#C1C1C1"/>
<path d="M101.887 566.754L112.524 577.402V579.164C83.0722 578.295 53.3309 580.323 23.9032 579.164C23.3243 579.164 22.7213 579.164 22.1424 579.164C19.7785 579.116 17.3905 579.237 15.0508 579.164V564.967C17.7282 566.271 19.9232 566.778 22.9384 566.851C49.1821 567.503 75.667 566.754 101.911 566.754H101.887Z" fill="#D5D5D5"/>
<path d="M677.898 648.364H715.117V751.27C784.803 751.511 854.585 750.932 924.271 751.27C924.85 751.27 925.453 751.27 926.032 751.27C931.025 751.294 938.478 749.821 941.976 753.032C865.584 753.66 789.097 752.694 712.753 751.922C710.076 751.897 706.892 753.225 703.587 753.201C694.494 753.129 686.992 748.565 677.898 754.795C680.504 726.593 679.9 676.976 677.898 648.34V648.364Z" fill="#ACACAC"/>
<path d="M268.491 579.164L270.252 582.69L257.854 584.476C252.788 584.332 246.878 584.09 241.91 584.476C238.677 580.686 231.32 582.134 231.272 587.132V699.793L172.779 641.265C172.441 637.885 165.976 624.316 163.371 622.287C161.9 621.128 146.269 616.517 144.412 616.42L147.765 613.957L116.046 580.927L112.5 579.164V577.402C164.433 578.319 216.824 575.398 268.467 579.164H268.491Z" fill="#D8D8D8"/>
<path d="M241.885 584.476C246.854 584.09 252.764 584.332 257.829 584.476C261.954 584.597 266.127 584.38 270.252 584.476C270.252 637.668 270.252 690.956 270.252 744.171C268.008 741.394 268.322 738.352 265.934 735.165C260.338 727.728 246.613 715.149 239.304 707.664C237.109 705.418 236.53 702.545 233.033 703.342V750.352L226.93 753.105C158.836 754.988 89.6089 751.052 22.1182 751.245H23.879L231.248 749.483L234.721 585.249C236.989 583.921 239.497 584.645 241.885 584.476Z" fill="#B2B2B2"/>
<path d="M486.497 566.754C486.642 567.43 488.138 568.71 488.258 570.303C491.056 606.593 485.967 646.07 488.499 682.722C490.502 688.855 509.485 683.519 514.984 686.44C516.721 687.503 517.807 705.129 513.947 705.129H435.964C435.53 705.129 434.565 707.229 433.286 706.167C430.464 704.235 430.078 688.3 434.203 685.619H463.438V593.362H436.856C434.372 573.007 441.15 578.778 453.789 573.949C465.464 569.482 472.194 564.001 486.473 566.754H486.497Z" fill="#FEFEFE"/>
<path d="M672.591 754.795C674.183 756.099 676.282 757.016 677.898 758.344L270.252 760.107V754.795H672.591Z" fill="#BEBEBE"/>
<path d="M817.921 643.028C819.296 645.37 822.359 648.026 817.076 648.364C787.239 650.199 756.557 645.998 726.936 647.229C723.68 647.374 719.193 648.412 716.902 651.02V745.934L917.179 744.171C919.277 746.32 923.088 747.624 924.27 751.27C854.585 750.931 784.802 751.511 715.117 751.27V648.364H677.898C677.801 646.963 678.211 643.462 677.898 643.052C724.548 643.1 771.271 642.979 817.921 643.052V643.028Z" fill="#C3C3C3"/>
<path d="M144.413 616.42C146.27 616.493 161.901 621.128 163.372 622.287C165.977 624.315 172.441 637.885 172.779 641.265C174.251 656.114 162.166 672.026 153.241 682.915C149.237 687.792 142.025 691.776 140.891 698.054H176.349L176.06 709.306L173.672 712.251H114.286C111.994 699.358 116.288 700.903 122.318 694.553C131.942 684.461 156.063 660.847 156.69 647.35C157.342 633.104 145.329 627.237 132.762 632.259C126.033 634.963 124.223 644.332 116.095 634.988C107.966 625.643 136.815 616.082 144.413 616.42Z" fill="#FDFDFD"/>
<path d="M231.272 749.483L23.9033 751.245L30.1507 745.958C92.5278 749.362 159.85 741.322 221.648 745.789C225.748 746.078 228.233 746.561 231.272 749.459V749.483Z" fill="#BDBDBD"/>
<path d="M112.5 579.164L116.046 580.927C117.035 586.311 113.345 584.332 109.92 584.476C85.4366 585.442 52.2702 586.384 28.2215 584.476C22.7701 584.042 23.6626 585.346 23.8797 579.14C53.3074 580.299 83.0486 578.271 112.5 579.14V579.164Z" fill="#C2C2C2"/>
<path d="M821.466 643.028C825.543 649.595 830.705 652.637 835.722 658.094C862.327 687.02 889.656 716.042 917.179 744.171L716.901 745.934V651.02C719.193 648.412 723.655 647.374 726.936 647.229C756.556 645.998 787.238 650.199 817.076 648.364C822.359 648.05 819.295 645.394 817.92 643.028C819.102 643.028 820.284 643.028 821.466 643.028ZM815.508 692.09C829.884 674.44 809.671 659.277 790.929 666.593C787.914 667.776 786.105 671.374 782.462 671.471C788.493 684.461 795.85 671.422 807.018 675.261C812.879 685.837 804.678 691.656 794.233 690.98C787.021 703.463 810.178 697.813 810.998 706.022C812.855 724.251 793.944 718.626 784.247 712.275C776.649 730.143 806.994 731.205 816.28 723.962C826.097 716.284 825.036 697.958 810.829 696.292C809.792 694.964 814.664 693.201 815.508 692.163V692.09Z" fill="#C8C8C8"/>
<path d="M815.509 692.09C814.664 693.129 809.792 694.891 810.829 696.219C825.061 697.885 826.122 716.211 816.281 723.889C806.994 731.133 776.65 730.094 784.248 712.203C793.944 718.553 812.831 724.179 810.998 705.95C810.154 697.764 787.022 703.39 794.234 690.907C804.654 691.583 812.88 685.764 807.018 675.189C795.85 671.374 788.517 684.412 782.463 671.398C786.105 671.326 787.914 667.704 790.929 666.521C809.647 659.229 829.885 674.392 815.509 692.018V692.09Z" fill="#EAEAEA"/>
<path d="M440.403 513.514L672.592 754.795L298.281 751.245L314.877 522.086L449.231 525.056L440.403 513.514Z" fill="#C8C8C8"/>
<path d="M763.914 648.364H817.077L847.638 732.557L773.972 737.893L736.488 675.672L763.914 648.364Z" fill="#C8C8C8"/>
<path d="M132.015 597.539L159.5 624.5L184.044 652.541V729.418L98.3657 723.865L94.627 597.539H132.015Z" fill="#C8C8C8"/>
<path d="M116.047 580.927L223.506 692.042L208.286 610.867L116.047 580.927Z" fill="#D8D8D8"/>
<path d="M459.177 610.1C457.11 610.033 454.977 610 452.777 610C450.644 610 448.51 610.133 446.377 610.4C446.11 609.333 445.977 608.167 445.977 606.9C445.977 604.233 446.71 602.1 448.177 600.5C449.71 598.9 451.644 598.1 453.977 598.1H459.377L467.777 560.3C465.71 562.367 462.544 563.4 458.277 563.4C456.144 563.4 454.244 562.4 452.577 560.4C450.91 558.533 449.944 556.267 449.677 553.6C459.544 551.867 471.844 547.7 486.577 541.1L489.777 544.9L480.077 598.1H482.577C486.577 598.1 489.61 597.733 491.677 597C492.544 598.467 492.977 600.4 492.977 602.8C492.977 605.2 492.077 607.133 490.277 608.6C488.544 610 486.21 610.7 483.277 610.7C477.344 610.7 471.444 610.567 465.577 610.3L459.177 610.1Z" fill="white"/>
<path d="M812.744 670.95C817.144 672.083 819.344 674.8 819.344 679.1C819.344 682.2 818.028 684.767 815.394 686.8C812.594 688.933 808.894 690 804.294 690C801.561 690 799.378 689.483 797.744 688.45C796.111 687.383 795.294 685.983 795.294 684.25C795.294 682.517 795.944 681.117 797.244 680.05C797.911 681.283 798.828 682.183 799.994 682.75C801.194 683.317 802.544 683.6 804.044 683.6C805.578 683.6 806.828 683.2 807.794 682.4C808.761 681.6 809.244 680.417 809.244 678.85C809.244 675.883 807.211 674.4 803.144 674.4L803.994 669.9C808.861 669.1 811.294 667.5 811.294 665.1C811.294 664.133 810.961 663.383 810.294 662.85C809.628 662.317 808.661 662.05 807.394 662.05C805.161 662.05 803.061 663.083 801.094 665.15C800.461 664.983 800.011 664.683 799.744 664.25C799.478 663.783 799.344 663.083 799.344 662.15C799.344 661.217 799.678 660.317 800.344 659.45C801.011 658.55 801.928 657.767 803.094 657.1C805.594 655.7 808.528 655 811.894 655C814.461 655 816.561 655.667 818.194 657C819.894 658.367 820.744 660.067 820.744 662.1C820.744 663.933 820.011 665.65 818.544 667.25C817.078 668.85 815.144 670.083 812.744 670.95Z" fill="white"/>
<path d="M127.011 637.64L135.761 630.92L141.221 626.44C143.088 624.853 144.698 623.36 146.051 621.96C148.524 619.487 149.761 617.06 149.761 614.68C149.761 613.28 149.294 612.207 148.361 611.46C147.474 610.713 146.354 610.34 145.001 610.34C143.694 610.34 142.551 610.503 141.571 610.83C140.638 611.11 139.751 611.507 138.911 612.02C137.138 613.187 135.831 614.657 134.991 616.43C133.824 616.383 132.844 615.87 132.051 614.89C131.304 613.91 130.931 612.72 130.931 611.32C130.931 609.873 131.374 608.497 132.261 607.19C133.148 605.837 134.384 604.647 135.971 603.62C139.424 601.473 143.508 600.4 148.221 600.4C152.981 600.4 156.691 601.427 159.351 603.48C162.011 605.533 163.341 608.31 163.341 611.81C163.341 614.423 162.688 616.92 161.381 619.3C160.121 621.68 157.788 624.083 154.381 626.51L146.821 631.83L142.271 634.84L136.461 638.41L138.911 638.69C140.031 638.83 141.571 638.9 143.531 638.9C145.491 638.9 147.288 638.807 148.921 638.62C150.554 638.387 152.071 638.06 153.471 637.64C156.551 636.8 158.581 635.797 159.561 634.63C160.074 635.003 160.518 635.68 160.891 636.66C161.311 637.593 161.521 638.643 161.521 639.81C161.521 643.31 160.191 645.783 157.531 647.23C154.871 648.677 150.811 649.4 145.351 649.4C142.504 649.4 139.191 648.98 135.411 648.14C131.631 647.347 128.971 646.717 127.431 646.25L127.011 637.64Z" fill="white"/>
</g>
<defs>
<clipPath id="clip0_96_395">
<rect width="942" height="785" fill="white"/>
</clipPath>
</defs>
</svg>
